<?xml version="1.0" encoding="utf-8"?>
<!-- Generator: Adobe Illustrator 18.0.0, SVG Export Plug-In . SVG Version: 6.00 Build 0)  -->
<!DOCTYPE svg PUBLIC "-//W3C//DTD SVG 1.1//EN" "http://www.w3.org/Graphics/SVG/1.1/DTD/svg11.dtd">
<svg version="1.1" id="Layer_1" xmlns="http://www.w3.org/2000/svg" xmlns:xlink="http://www.w3.org/1999/xlink" x="0px" y="0px"
	 viewBox="0 0 1400 980" enable-background="new 0 0 1400 980" xml:space="preserve">
<g>
	<g>
		<g>
			<g>
				<rect fill="#DFEBD0" width="1400" height="980"/>
			</g>
		</g>
	</g>
	<g>
		<polygon fill="#294738" points="1042.8,564.7 926.5,484.5 858.7,509.1 722.4,290.3 670.5,293 598.9,216.7 566.9,246.7 
			531.1,227.6 499.3,132.3 448.6,184 385.2,214 260.2,350.3 201.3,350.3 134.6,416.6 0,523.6 0,846.1 1400,846.1 1400,634.6 
			1116.5,484.5 		"/>
		<polygon fill="#2C4B3B" points="0,523.6 286.4,665.5 134.6,416.6 		"/>
		<polygon fill="#375948" points="201.3,350.3 335.9,473.1 250.7,350.3 		"/>
		<polygon fill="#2F4E3F" points="286.4,665.5 335.9,473.1 134.6,416.6 		"/>
		<polygon fill="#3F6351" points="260.2,350.3 478.5,374 385.2,214 		"/>
		<polygon fill="#315242" points="385.2,214 478.5,374 448.6,184 		"/>
		<polygon fill="#3F6351" points="478.5,374 499.3,132.3 448.6,184 		"/>
		<polygon fill="#3C604E" points="478.5,374 531.1,227.6 499.3,132.3 		"/>
		<polygon fill="#375948" points="478.5,374 593.4,411.7 566.9,246.7 		"/>
		<polygon fill="#2F4E3F" points="593.4,411.7 598.9,216.7 566.9,246.7 		"/>
		<polygon fill="#315242" points="593.4,411.7 670.5,293 598.9,216.7 		"/>
		<polygon fill="#2F4E3F" points="690.4,449.1 722.4,290.3 670.5,293 		"/>
		<polygon fill="#375948" points="690.4,449.1 858.7,509.1 722.4,290.3 		"/>
		<polygon fill="#315242" points="892.6,662 926.5,484.5 858.7,509.1 		"/>
		<polygon fill="#375948" points="892.6,662 1042.8,564.7 926.5,484.5 		"/>
		<polygon fill="#2C4B3B" points="1199.4,716.1 1400,634.6 1116.5,484.5 		"/>
		<polygon fill="#244132" points="1042.8,749.8 1199.4,716.1 1042.8,564.7 		"/>
		<polygon fill="#2F4E3F" points="670.5,610.5 892.6,662 690.4,449.1 		"/>
		<polygon fill="#2F4E3F" points="478.5,566.5 478.5,374 335.9,473.1 		"/>
		<polygon fill="#244132" points="478.5,566.5 690.4,449.1 593.4,411.7 		"/>
		<polygon fill="#244132" points="516.1,846.1 670.5,610.5 478.5,566.5 		"/>
		<polygon fill="#244132" points="286.4,665.5 516.1,846.1 478.5,566.5 		"/>
		<polygon fill="#132D20" points="0,846.1 516.1,846.1 286.4,665.5 		"/>
		<polygon fill="#132D20" points="516.1,846.1 926.5,846.1 892.6,662 		"/>
		<polygon fill="#2F4E3F" points="1042.8,749.8 1042.8,564.7 892.6,662 		"/>
		<polygon fill="#244132" points="1400,846.1 1400,634.6 1199.4,716.1 		"/>
		<polygon fill="#132D20" points="926.5,846.1 1092.5,846.1 1042.8,749.8 		"/>
		<polygon fill="#132D20" points="1092.5,846.1 1400,846.1 1199.4,716.1 		"/>
	</g>
	<g opacity="0.7">
		<polygon fill="#294738" points="1248.6,332.7 1204.2,332.7 1110.2,233.6 1062.5,211.9 1024.3,174.2 1000.4,243.6 973.4,257.4 
			949.3,235.6 895.5,291.1 856.5,289.1 753.9,448.2 702.9,430.3 615.4,488.5 559.9,430.3 346.6,539.3 346.6,693.1 1400,693.1 
			1400,458.7 1298.7,380.9 		"/>
		<polygon fill="#2C4B3B" points="1184.5,561.8 1400,458.7 1298.7,380.9 		"/>
		<polygon fill="#375948" points="1147.3,422 1248.6,332.7 1211.3,332.7 		"/>
		<polygon fill="#2F4E3F" points="1184.5,561.8 1298.7,380.9 1147.3,422 		"/>
		<polygon fill="#3F6351" points="1040,349.9 1204.2,332.7 1110.2,233.6 		"/>
		<polygon fill="#315242" points="1040,349.9 1110.2,233.6 1062.5,211.9 		"/>
		<polygon fill="#3F6351" points="1040,349.9 1062.5,211.9 1024.3,174.2 		"/>
		<polygon fill="#3C604E" points="1000.4,243.6 1040,349.9 1024.3,174.2 		"/>
		<polygon fill="#375948" points="953.5,377.3 1040,349.9 973.4,257.4 		"/>
		<polygon fill="#2F4E3F" points="953.5,377.3 973.4,257.4 949.3,235.6 		"/>
		<polygon fill="#315242" points="895.5,291.1 953.5,377.3 949.3,235.6 		"/>
		<polygon fill="#2F4E3F" points="880.5,404.5 895.5,291.1 856.5,289.1 		"/>
		<polygon fill="#375948" points="753.9,448.2 880.5,404.5 856.5,289.1 		"/>
		<polygon fill="#315242" points="728.4,559.2 753.9,448.2 702.9,430.3 		"/>
		<polygon fill="#375948" points="615.4,488.5 728.4,559.2 702.9,430.3 		"/>
		<polygon fill="#2C4B3B" points="497.5,598.6 559.9,430.3 346.6,539.3 		"/>
		<polygon fill="#244132" points="615.4,623.1 615.4,488.5 497.5,598.6 		"/>
		<polygon fill="#2F4E3F" points="728.4,559.2 895.5,521.8 880.5,404.5 		"/>
		<polygon fill="#2F4E3F" points="1040,489.9 1147.3,422 1040,349.9 		"/>
		<polygon fill="#244132" points="880.5,404.5 1040,489.9 953.5,377.3 		"/>
		<polygon fill="#244132" points="1011.7,693.1 1040,489.9 895.5,521.8 		"/>
		<polygon fill="#244132" points="1011.7,693.1 1184.5,561.8 1040,489.9 		"/>
		<polygon fill="#132D20" points="1011.7,693.1 1400,693.1 1184.5,561.8 		"/>
		<polygon fill="#132D20" points="702.9,693.1 1011.7,693.1 728.4,559.2 		"/>
		<polygon fill="#2F4E3F" points="615.4,623.1 728.4,559.2 615.4,488.5 		"/>
		<polygon fill="#244132" points="346.6,693.1 497.5,598.6 346.6,539.3 		"/>
		<polygon fill="#132D20" points="578,693.1 702.9,693.1 615.4,623.1 		"/>
		<polygon fill="#132D20" points="346.6,693.1 578,693.1 497.5,598.6 		"/>
	</g>
	<g opacity="0.7">
		<polygon fill="#294738" points="807.5,388.8 616.2,330.5 504.7,348.4 280.4,189.4 195.2,191.3 77.4,135.9 24.7,157.7 0,151.9 
			0,593.3 1395,593.3 1395,439.6 928.8,330.5 		"/>
		<polygon fill="#375948" points="0,173.4 0,267.7 68.2,277.6 24.7,157.7 		"/>
		<polygon fill="#2F4E3F" points="68.2,277.6 77.4,135.9 24.7,157.7 		"/>
		<polygon fill="#315242" points="68.2,277.6 195.2,191.3 77.4,135.9 		"/>
		<polygon fill="#2F4E3F" points="227.9,304.8 280.4,189.4 195.2,191.3 		"/>
		<polygon fill="#375948" points="227.9,304.8 504.7,348.4 280.4,189.4 		"/>
		<polygon fill="#315242" points="560.5,459.5 616.2,330.5 504.7,348.4 		"/>
		<polygon fill="#375948" points="560.5,459.5 807.5,388.8 616.2,330.5 		"/>
		<polygon fill="#2C4B3B" points="1065.1,498.8 1395,439.6 928.8,330.5 		"/>
		<polygon fill="#244132" points="807.5,523.3 1065.1,498.8 807.5,388.8 		"/>
		<polygon fill="#2F4E3F" points="195.2,422.1 560.5,459.5 227.9,304.8 		"/>
		<polygon fill="#244132" points="0,318.2 0,360.6 227.9,304.8 68.2,277.6 		"/>
		<polygon fill="#244132" points="0,553.7 195.2,422.1 0,402.3 		"/>
		<polygon fill="#132D20" points="0,580.6 0,593.3 616.2,593.3 560.5,459.5 		"/>
		<polygon fill="#2F4E3F" points="807.5,523.3 807.5,388.8 560.5,459.5 		"/>
		<polygon fill="#244132" points="1395,593.3 1395,439.6 1065.1,498.8 		"/>
		<polygon fill="#132D20" points="616.2,593.3 889.2,593.3 807.5,523.3 		"/>
		<polygon fill="#132D20" points="889.2,593.3 1395,593.3 1065.1,498.8 		"/>
	</g>
	<g opacity="0.7">
		<polygon fill="#579642" points="1021.7,794.4 988,747.2 1021.7,747.2 998.6,707.9 1012.9,686.3 991.5,623.5 977.3,582.2 
			977.3,554.7 948.9,478.1 915.2,421.2 886.7,519.4 885,560.6 861.9,623.5 865.4,660.8 845.9,711.9 832.3,790.4 847.7,804.2 
			813.9,888.6 813.9,940.4 915.2,940.4 1062.6,940.4 1048.4,859.2 		"/>
		<polygon fill="#7EB640" points="919.6,460.9 948.9,478.1 915.2,421.2 		"/>
		<polygon fill="#8DC63F" points="886.7,519.4 919.6,460.9 915.2,421.2 		"/>
		<polygon fill="#78B040" points="886.7,519.4 948.9,478.1 919.6,460.9 		"/>
		<polygon fill="#78B040" points="934.8,537 977.3,554.7 948.9,478.1 		"/>
		<polygon fill="#85BD3F" points="934.8,537 948.9,478.1 886.7,519.4 		"/>
		<polygon fill="#78B040" points="885,560.6 934.8,537 886.7,519.4 		"/>
		<polygon fill="#78B040" points="977.3,582.2 977.3,554.7 934.8,537 		"/>
		<polygon fill="#64A041" points="885,560.6 977.3,582.2 934.8,537 		"/>
		<polygon fill="#64A041" points="861.9,623.5 921.4,603.6 885,560.6 		"/>
		<polygon fill="#78B040" points="921.4,603.6 977.3,582.2 885,560.6 		"/>
		<polygon fill="#579642" points="921.4,603.6 1012.9,686.3 977.3,582.2 		"/>
		<polygon fill="#71AB41" points="915.8,703.4 921.4,603.6 861.9,623.5 		"/>
		<polygon fill="#498C42" points="865.4,660.8 915.8,703.4 861.9,623.5 		"/>
		<polygon fill="#509142" points="915.8,703.4 1012.9,686.3 921.4,603.6 		"/>
		<polygon fill="#498C42" points="998.6,707.9 1012.9,686.3 915.8,703.4 		"/>
		<polygon fill="#509142" points="903.9,759.4 915.8,703.4 865.4,660.8 		"/>
		<polygon fill="#579642" points="988,747.2 1021.7,747.2 998.6,707.9 		"/>
		<polygon fill="#71AB41" points="903.9,759.4 998.6,707.9 915.8,703.4 		"/>
		<polygon fill="#498C42" points="988,747.2 998.6,707.9 903.9,759.4 		"/>
		<polygon fill="#498C42" points="845.9,711.9 903.9,759.4 865.4,660.8 		"/>
		<polygon fill="#347F41" points="951.3,848.9 1021.7,794.4 903.9,759.4 		"/>
		<polygon fill="#428841" points="951.3,848.9 1048.4,859.2 1021.7,794.4 		"/>
		<polygon fill="#2C7B41" points="951.3,848.9 1062.6,940.4 1048.4,859.2 		"/>
		<polygon fill="#197240" points="813.9,940.4 1062.6,940.4 951.3,848.9 		"/>
		<polygon fill="#347F41" points="813.9,940.4 951.3,848.9 813.9,888.6 		"/>
		<polygon fill="#498C42" points="847.7,804.2 903.9,759.4 832.3,790.4 		"/>
		<polygon fill="#3B8341" points="847.7,804.2 951.3,848.9 903.9,759.4 		"/>
	</g>
	<g opacity="0.7">
		<polygon fill="#579642" points="1272.9,821.2 1239.1,774 1272.9,774 1249.8,734.7 1264,713.1 1242.7,650.3 1228.4,609 
			1228.4,581.5 1200,504.9 1166.3,448 1137.9,546.2 1136.1,587.4 1113,650.3 1116.5,687.6 1097,738.7 1083.5,817.2 1098.8,831 
			1065,915.4 1065,967.2 1166.3,967.2 1313.7,967.2 1299.5,886 		"/>
		<polygon fill="#7EB640" points="1170.7,487.8 1200,504.9 1166.3,448 		"/>
		<polygon fill="#8DC63F" points="1137.9,546.2 1170.7,487.8 1166.3,448 		"/>
		<polygon fill="#78B040" points="1137.9,546.2 1200,504.9 1170.7,487.8 		"/>
		<polygon fill="#78B040" points="1185.9,563.8 1228.4,581.5 1200,504.9 		"/>
		<polygon fill="#85BD3F" points="1185.9,563.8 1200,504.9 1137.9,546.2 		"/>
		<polygon fill="#78B040" points="1136.1,587.4 1185.9,563.8 1137.9,546.2 		"/>
		<polygon fill="#78B040" points="1228.4,609 1228.4,581.5 1185.9,563.8 		"/>
		<polygon fill="#64A041" points="1136.1,587.4 1228.4,609 1185.9,563.8 		"/>
		<polygon fill="#64A041" points="1113,650.3 1172.5,630.4 1136.1,587.4 		"/>
		<polygon fill="#78B040" points="1172.5,630.4 1228.4,609 1136.1,587.4 		"/>
		<polygon fill="#579642" points="1172.5,630.4 1264,713.1 1228.4,609 		"/>
		<polygon fill="#71AB41" points="1167,730.2 1172.5,630.4 1113,650.3 		"/>
		<polygon fill="#498C42" points="1116.5,687.6 1167,730.2 1113,650.3 		"/>
		<polygon fill="#509142" points="1167,730.2 1264,713.1 1172.5,630.4 		"/>
		<polygon fill="#498C42" points="1249.8,734.7 1264,713.1 1167,730.2 		"/>
		<polygon fill="#509142" points="1155.1,786.2 1167,730.2 1116.5,687.6 		"/>
		<polygon fill="#579642" points="1239.1,774 1272.9,774 1249.8,734.7 		"/>
		<polygon fill="#71AB41" points="1155.1,786.2 1249.8,734.7 1167,730.2 		"/>
		<polygon fill="#498C42" points="1239.1,774 1249.8,734.7 1155.1,786.2 		"/>
		<polygon fill="#498C42" points="1097,738.7 1155.1,786.2 1116.5,687.6 		"/>
		<polygon fill="#347F41" points="1202.4,875.7 1272.9,821.2 1155.1,786.2 		"/>
		<polygon fill="#428841" points="1202.4,875.7 1299.5,886 1272.9,821.2 		"/>
		<polygon fill="#2C7B41" points="1202.4,875.7 1313.7,967.2 1299.5,886 		"/>
		<polygon fill="#197240" points="1065,967.2 1313.7,967.2 1202.4,875.7 		"/>
		<polygon fill="#347F41" points="1065,967.2 1202.4,875.7 1065,915.4 		"/>
		<polygon fill="#498C42" points="1098.8,831 1155.1,786.2 1083.5,817.2 		"/>
		<polygon fill="#3B8341" points="1098.8,831 1202.4,875.7 1155.1,786.2 		"/>
	</g>
	<g opacity="0.7">
		<polygon fill="#579642" points="849.6,824.2 833.6,742.7 810.6,689.6 814.7,650.9 787.5,585.6 785.4,542.8 751.9,440.8 
			712.2,499.9 678.7,579.5 678.7,608 661.9,650.9 636.8,716.1 653.5,738.6 626.3,779.4 666.1,779.4 626.3,828.3 594.9,895.6 
			578.2,980 751.9,980 871.3,980 871.3,926.2 831.5,838.5 		"/>
		<polygon fill="#7EB640" points="746.7,482.1 751.9,440.8 712.2,499.9 		"/>
		<polygon fill="#8DC63F" points="746.7,482.1 785.4,542.8 751.9,440.8 		"/>
		<polygon fill="#78B040" points="712.2,499.9 785.4,542.8 746.7,482.1 		"/>
		<polygon fill="#78B040" points="678.7,579.5 728.8,561 712.2,499.9 		"/>
		<polygon fill="#85BD3F" points="728.8,561 785.4,542.8 712.2,499.9 		"/>
		<polygon fill="#78B040" points="728.8,561 787.5,585.6 785.4,542.8 		"/>
		<polygon fill="#78B040" points="678.7,608 728.8,561 678.7,579.5 		"/>
		<polygon fill="#64A041" points="678.7,608 787.5,585.6 728.8,561 		"/>
		<polygon fill="#64A041" points="744.6,630.3 814.7,650.9 787.5,585.6 		"/>
		<polygon fill="#78B040" points="744.6,630.3 787.5,585.6 678.7,608 		"/>
		<polygon fill="#579642" points="636.8,716.1 744.6,630.3 678.7,608 		"/>
		<polygon fill="#71AB41" points="751.1,733.9 814.7,650.9 744.6,630.3 		"/>
		<polygon fill="#498C42" points="810.6,689.6 814.7,650.9 751.1,733.9 		"/>
		<polygon fill="#509142" points="636.8,716.1 751.1,733.9 744.6,630.3 		"/>
		<polygon fill="#498C42" points="653.5,738.6 751.1,733.9 636.8,716.1 		"/>
		<polygon fill="#509142" points="765.2,792 810.6,689.6 751.1,733.9 		"/>
		<polygon fill="#579642" points="626.3,779.4 666.1,779.4 653.5,738.6 		"/>
		<polygon fill="#71AB41" points="653.5,738.6 765.2,792 751.1,733.9 		"/>
		<polygon fill="#498C42" points="666.1,779.4 765.2,792 653.5,738.6 		"/>
		<polygon fill="#498C42" points="765.2,792 833.6,742.7 810.6,689.6 		"/>
		<polygon fill="#347F41" points="709.4,885 765.2,792 626.3,828.3 		"/>
		<polygon fill="#428841" points="594.9,895.6 709.4,885 626.3,828.3 		"/>
		<polygon fill="#2C7B41" points="578.2,980 709.4,885 594.9,895.6 		"/>
		<polygon fill="#197240" points="578.2,980 871.3,980 709.4,885 		"/>
		<polygon fill="#347F41" points="871.3,980 871.3,926.2 709.4,885 		"/>
		<polygon fill="#498C42" points="831.5,838.5 849.6,824.2 765.2,792 		"/>
		<polygon fill="#3B8341" points="709.4,885 831.5,838.5 765.2,792 		"/>
	</g>
	<g opacity="0.7">
		<polygon fill="#579642" points="162.8,804.5 150.5,733.2 132.8,687 136,653.1 115.1,596.2 113.5,558.8 87.7,469.8 57.1,521.4 
			31.4,590.8 31.4,615.7 18.5,653.1 0,707.7 0,711.3 12.1,729.7 0,750.2 0,765.3 21.7,765.3 0,795.6 0,940.4 179.5,940.4 
			179.5,893.5 148.9,816.9 		"/>
		<polygon fill="#7EB640" points="83.7,505.8 87.7,469.8 57.1,521.4 		"/>
		<polygon fill="#8DC63F" points="83.7,505.8 113.5,558.8 87.7,469.8 		"/>
		<polygon fill="#78B040" points="57.1,521.4 113.5,558.8 83.7,505.8 		"/>
		<polygon fill="#78B040" points="31.4,590.8 69.9,574.7 57.1,521.4 		"/>
		<polygon fill="#85BD3F" points="69.9,574.7 113.5,558.8 57.1,521.4 		"/>
		<polygon fill="#78B040" points="69.9,574.7 115.1,596.2 113.5,558.8 		"/>
		<polygon fill="#78B040" points="31.4,615.7 69.9,574.7 31.4,590.8 		"/>
		<polygon fill="#64A041" points="31.4,615.7 115.1,596.2 69.9,574.7 		"/>
		<polygon fill="#64A041" points="82.1,635.2 136,653.1 115.1,596.2 		"/>
		<polygon fill="#78B040" points="82.1,635.2 115.1,596.2 31.4,615.7 		"/>
		<polygon fill="#579642" points="0,707.7 0,709.4 82.1,635.2 31.4,615.7 		"/>
		<polygon fill="#71AB41" points="87.1,725.6 136,653.1 82.1,635.2 		"/>
		<polygon fill="#498C42" points="132.8,687 136,653.1 87.1,725.6 		"/>
		<polygon fill="#509142" points="0,709.4 0,710.2 87.1,725.6 82.1,635.2 		"/>
		<polygon fill="#498C42" points="0,711.3 12.1,729.7 87.1,725.6 0,710.2 		"/>
		<polygon fill="#509142" points="97.9,776.3 132.8,687 87.1,725.6 		"/>
		<polygon fill="#579642" points="0,750.2 0,765.3 21.7,765.3 12.1,729.7 		"/>
		<polygon fill="#71AB41" points="12.1,729.7 97.9,776.3 87.1,725.6 		"/>
		<polygon fill="#498C42" points="21.7,765.3 97.9,776.3 12.1,729.7 		"/>
		<polygon fill="#498C42" points="97.9,776.3 150.5,733.2 132.8,687 		"/>
		<polygon fill="#347F41" points="0,814.9 55,857.4 97.9,776.3 0,805.4 		"/>
		<polygon fill="#428841" points="0,863.3 55,857.4 0,814.9 		"/>
		<polygon fill="#2C7B41" points="0,902.7 55,857.4 0,863.3 		"/>
		<polygon fill="#197240" points="0,902.7 0,940.4 179.5,940.4 55,857.4 		"/>
		<polygon fill="#347F41" points="179.5,940.4 179.5,893.5 55,857.4 		"/>
		<polygon fill="#498C42" points="148.9,816.9 162.8,804.5 97.9,776.3 		"/>
		<polygon fill="#3B8341" points="55,857.4 148.9,816.9 97.9,776.3 		"/>
	</g>
	<g opacity="0.7">
		<polygon fill="#579642" points="605.3,777.4 569.1,726.9 605.3,726.9 580.5,684.9 595.8,661.7 572.9,594.4 557.7,550.2 
			557.7,520.8 527.3,438.8 491.1,377.8 460.7,482.9 458.8,527.1 434.1,594.4 437.9,634.4 416.9,689.1 402.4,773.2 418.8,787.9 
			382.7,878.4 382.7,933.8 491.1,933.8 649,933.8 633.8,846.8 		"/>
		<polygon fill="#7EB640" points="495.9,420.4 527.3,438.8 491.1,377.8 		"/>
		<polygon fill="#8DC63F" points="460.7,482.9 495.9,420.4 491.1,377.8 		"/>
		<polygon fill="#78B040" points="460.7,482.9 527.3,438.8 495.9,420.4 		"/>
		<polygon fill="#78B040" points="512.2,501.8 557.7,520.8 527.3,438.8 		"/>
		<polygon fill="#85BD3F" points="512.2,501.8 527.3,438.8 460.7,482.9 		"/>
		<polygon fill="#78B040" points="458.8,527.1 512.2,501.8 460.7,482.9 		"/>
		<polygon fill="#78B040" points="557.7,550.2 557.7,520.8 512.2,501.8 		"/>
		<polygon fill="#64A041" points="458.8,527.1 557.7,550.2 512.2,501.8 		"/>
		<polygon fill="#64A041" points="434.1,594.4 497.8,573.2 458.8,527.1 		"/>
		<polygon fill="#78B040" points="497.8,573.2 557.7,550.2 458.8,527.1 		"/>
		<polygon fill="#579642" points="497.8,573.2 595.8,661.7 557.7,550.2 		"/>
		<polygon fill="#71AB41" points="491.9,680 497.8,573.2 434.1,594.4 		"/>
		<polygon fill="#498C42" points="437.9,634.4 491.9,680 434.1,594.4 		"/>
		<polygon fill="#509142" points="491.9,680 595.8,661.7 497.8,573.2 		"/>
		<polygon fill="#498C42" points="580.5,684.9 595.8,661.7 491.9,680 		"/>
		<polygon fill="#509142" points="479.1,740 491.9,680 437.9,634.4 		"/>
		<polygon fill="#579642" points="569.1,726.9 605.3,726.9 580.5,684.9 		"/>
		<polygon fill="#71AB41" points="479.1,740 580.5,684.9 491.9,680 		"/>
		<polygon fill="#498C42" points="569.1,726.9 580.5,684.9 479.1,740 		"/>
		<polygon fill="#498C42" points="416.9,689.1 479.1,740 437.9,634.4 		"/>
		<polygon fill="#347F41" points="529.8,835.8 605.3,777.4 479.1,740 		"/>
		<polygon fill="#428841" points="529.8,835.8 633.8,846.8 605.3,777.4 		"/>
		<polygon fill="#2C7B41" points="529.8,835.8 649,933.8 633.8,846.8 		"/>
		<polygon fill="#197240" points="382.7,933.8 649,933.8 529.8,835.8 		"/>
		<polygon fill="#347F41" points="382.7,933.8 529.8,835.8 382.7,878.4 		"/>
		<polygon fill="#498C42" points="418.8,787.9 479.1,740 402.4,773.2 		"/>
		<polygon fill="#3B8341" points="418.8,787.9 529.8,835.8 479.1,740 		"/>
	</g>
	<g opacity="0.7">
		<polygon fill="#579642" points="1339.6,489.5 1337.7,533.7 1313,601 1316.8,641 1295.8,695.6 1281.3,779.8 1297.7,794.5 
			1261.6,885 1261.6,940.4 1400,940.4 1400,434.9 1370,384.3 		"/>
		<polygon fill="#7EB640" points="1374.8,426.9 1400,441.7 1400,434.9 1370,384.3 		"/>
		<polygon fill="#8DC63F" points="1339.6,489.5 1374.8,426.9 1370,384.3 		"/>
		<polygon fill="#78B040" points="1339.6,489.5 1400,449.4 1400,441.7 1374.8,426.9 		"/>
		<polygon fill="#78B040" points="1400,512.1 1400,471.1 1391.1,508.3 		"/>
		<polygon fill="#85BD3F" points="1391.1,508.3 1400,471.1 1400,449.4 1339.6,489.5 		"/>
		<polygon fill="#78B040" points="1337.7,533.7 1391.1,508.3 1339.6,489.5 		"/>
		<polygon fill="#78B040" points="1400,517.9 1400,512.1 1391.1,508.3 		"/>
		<polygon fill="#64A041" points="1337.7,533.7 1400,548.3 1400,517.9 1391.1,508.3 		"/>
		<polygon fill="#64A041" points="1313,601 1376.7,579.7 1337.7,533.7 		"/>
		<polygon fill="#78B040" points="1376.7,579.7 1400,570.8 1400,548.3 1337.7,533.7 		"/>
		<polygon fill="#579642" points="1400,600.8 1400,570.8 1376.7,579.7 		"/>
		<polygon fill="#71AB41" points="1370.8,686.6 1376.7,579.7 1313,601 		"/>
		<polygon fill="#498C42" points="1316.8,641 1370.8,686.6 1313,601 		"/>
		<polygon fill="#509142" points="1370.8,686.6 1400,681.4 1400,600.8 1376.7,579.7 		"/>
		<polygon fill="#498C42" points="1400,688.2 1400,681.4 1370.8,686.6 		"/>
		<polygon fill="#509142" points="1358,746.6 1370.8,686.6 1316.8,641 		"/>
		<polygon fill="#71AB41" points="1358,746.6 1400,723.7 1400,688.2 1370.8,686.6 		"/>
		<polygon fill="#498C42" points="1400,740.5 1400,723.7 1358,746.6 		"/>
		<polygon fill="#498C42" points="1295.8,695.6 1358,746.6 1316.8,641 		"/>
		<polygon fill="#347F41" points="1400,825.9 1400,759 1358,746.6 		"/>
		<polygon fill="#197240" points="1400,940.4 1400,848.2 1261.6,940.4 		"/>
		<polygon fill="#347F41" points="1261.6,940.4 1400,848.2 1400,844.9 1261.6,885 		"/>
		<polygon fill="#498C42" points="1297.7,794.5 1358,746.6 1281.3,779.8 		"/>
		<polygon fill="#3B8341" points="1297.7,794.5 1400,838.6 1400,825.9 1358,746.6 		"/>
	</g>
	<g opacity="0.7">
		<polygon fill="#579642" points="480.8,819.9 452.9,781 480.8,781 461.7,748.6 473.5,730.8 455.9,678.9 444.2,644.9 444.2,622.2 
			420.7,559 392.9,512 369.4,593 367.9,627 348.9,678.9 351.8,709.7 335.7,751.8 324.5,816.7 337.2,828 309.3,897.7 309.3,940.4 
			392.9,940.4 514.5,940.4 502.8,873.4 		"/>
		<polygon fill="#7EB640" points="396.5,544.8 420.7,559 392.9,512 		"/>
		<polygon fill="#8DC63F" points="369.4,593 396.5,544.8 392.9,512 		"/>
		<polygon fill="#78B040" points="369.4,593 420.7,559 396.5,544.8 		"/>
		<polygon fill="#78B040" points="409.1,607.5 444.2,622.2 420.7,559 		"/>
		<polygon fill="#85BD3F" points="409.1,607.5 420.7,559 369.4,593 		"/>
		<polygon fill="#78B040" points="367.9,627 409.1,607.5 369.4,593 		"/>
		<polygon fill="#78B040" points="444.2,644.9 444.2,622.2 409.1,607.5 		"/>
		<polygon fill="#64A041" points="367.9,627 444.2,644.9 409.1,607.5 		"/>
		<polygon fill="#64A041" points="348.9,678.9 398,662.5 367.9,627 		"/>
		<polygon fill="#78B040" points="398,662.5 444.2,644.9 367.9,627 		"/>
		<polygon fill="#579642" points="398,662.5 473.5,730.8 444.2,644.9 		"/>
		<polygon fill="#71AB41" points="393.4,744.8 398,662.5 348.9,678.9 		"/>
		<polygon fill="#498C42" points="351.8,709.7 393.4,744.8 348.9,678.9 		"/>
		<polygon fill="#509142" points="393.4,744.8 473.5,730.8 398,662.5 		"/>
		<polygon fill="#498C42" points="461.7,748.6 473.5,730.8 393.4,744.8 		"/>
		<polygon fill="#509142" points="383.6,791.1 393.4,744.8 351.8,709.7 		"/>
		<polygon fill="#579642" points="452.9,781 480.8,781 461.7,748.6 		"/>
		<polygon fill="#71AB41" points="383.6,791.1 461.7,748.6 393.4,744.8 		"/>
		<polygon fill="#498C42" points="452.9,781 461.7,748.6 383.6,791.1 		"/>
		<polygon fill="#498C42" points="335.7,751.8 383.6,791.1 351.8,709.7 		"/>
		<polygon fill="#347F41" points="422.7,864.9 480.8,819.9 383.6,791.1 		"/>
		<polygon fill="#428841" points="422.7,864.9 502.8,873.4 480.8,819.9 		"/>
		<polygon fill="#2C7B41" points="422.7,864.9 514.5,940.4 502.8,873.4 		"/>
		<polygon fill="#197240" points="309.3,940.4 514.5,940.4 422.7,864.9 		"/>
		<polygon fill="#347F41" points="309.3,940.4 422.7,864.9 309.3,897.7 		"/>
		<polygon fill="#498C42" points="337.2,828 383.6,791.1 324.5,816.7 		"/>
		<polygon fill="#3B8341" points="337.2,828 422.7,864.9 383.6,791.1 		"/>
	</g>
	<g opacity="0.7">
		<polygon fill="#579642" points="1366.3,819.9 1338.4,781 1366.3,781 1347.2,748.6 1359,730.8 1341.4,678.9 1329.7,644.9 
			1329.7,622.2 1306.2,559 1278.4,512 1254.9,593 1253.4,627 1234.4,678.9 1237.3,709.7 1221.2,751.8 1210,816.7 1222.7,828 
			1194.8,897.7 1194.8,940.4 1278.4,940.4 1400,940.4 1388.3,873.4 		"/>
		<polygon fill="#7EB640" points="1282,544.8 1306.2,559 1278.4,512 		"/>
		<polygon fill="#8DC63F" points="1254.9,593 1282,544.8 1278.4,512 		"/>
		<polygon fill="#78B040" points="1254.9,593 1306.2,559 1282,544.8 		"/>
		<polygon fill="#78B040" points="1294.6,607.5 1329.7,622.2 1306.2,559 		"/>
		<polygon fill="#85BD3F" points="1294.6,607.5 1306.2,559 1254.9,593 		"/>
		<polygon fill="#78B040" points="1253.4,627 1294.6,607.5 1254.9,593 		"/>
		<polygon fill="#78B040" points="1329.7,644.9 1329.7,622.2 1294.6,607.5 		"/>
		<polygon fill="#64A041" points="1253.4,627 1329.7,644.9 1294.6,607.5 		"/>
		<polygon fill="#64A041" points="1234.4,678.9 1283.5,662.5 1253.4,627 		"/>
		<polygon fill="#78B040" points="1283.5,662.5 1329.7,644.9 1253.4,627 		"/>
		<polygon fill="#579642" points="1283.5,662.5 1359,730.8 1329.7,644.9 		"/>
		<polygon fill="#71AB41" points="1278.9,744.8 1283.5,662.5 1234.4,678.9 		"/>
		<polygon fill="#498C42" points="1237.3,709.7 1278.9,744.8 1234.4,678.9 		"/>
		<polygon fill="#509142" points="1278.9,744.8 1359,730.8 1283.5,662.5 		"/>
		<polygon fill="#498C42" points="1347.2,748.6 1359,730.8 1278.9,744.8 		"/>
		<polygon fill="#509142" points="1269.1,791.1 1278.9,744.8 1237.3,709.7 		"/>
		<polygon fill="#579642" points="1338.4,781 1366.3,781 1347.2,748.6 		"/>
		<polygon fill="#71AB41" points="1269.1,791.1 1347.2,748.6 1278.9,744.8 		"/>
		<polygon fill="#498C42" points="1338.4,781 1347.2,748.6 1269.1,791.1 		"/>
		<polygon fill="#498C42" points="1221.2,751.8 1269.1,791.1 1237.3,709.7 		"/>
		<polygon fill="#347F41" points="1308.2,864.9 1366.3,819.9 1269.1,791.1 		"/>
		<polygon fill="#428841" points="1308.2,864.9 1388.3,873.4 1366.3,819.9 		"/>
		<polygon fill="#2C7B41" points="1308.2,864.9 1400,940.4 1388.3,873.4 		"/>
		<polygon fill="#197240" points="1194.8,940.4 1400,940.4 1308.2,864.9 		"/>
		<polygon fill="#347F41" points="1194.8,940.4 1308.2,864.9 1194.8,897.7 		"/>
		<polygon fill="#498C42" points="1222.7,828 1269.1,791.1 1210,816.7 		"/>
		<polygon fill="#3B8341" points="1222.7,828 1308.2,864.9 1269.1,791.1 		"/>
	</g>
	<g opacity="0.7">
		<polygon fill="#579642" points="427.6,799.2 414.8,725.2 396.4,677.2 399.8,642 378,582.9 376.4,544 349.6,451.6 317.8,505.2 
			291.1,577.3 291.1,603.2 277.7,642 257.7,701.2 271,721.5 249.3,758.5 281.1,758.5 249.3,802.9 224.2,863.9 210.8,940.4 
			349.6,940.4 444.9,940.4 444.9,891.7 413.2,812.2 		"/>
		<polygon fill="#7EB640" points="345.4,489 349.6,451.6 317.8,505.2 		"/>
		<polygon fill="#8DC63F" points="345.4,489 376.4,544 349.6,451.6 		"/>
		<polygon fill="#78B040" points="317.8,505.2 376.4,544 345.4,489 		"/>
		<polygon fill="#78B040" points="291.1,577.3 331.1,560.6 317.8,505.2 		"/>
		<polygon fill="#85BD3F" points="331.1,560.6 376.4,544 317.8,505.2 		"/>
		<polygon fill="#78B040" points="331.1,560.6 378,582.9 376.4,544 		"/>
		<polygon fill="#78B040" points="291.1,603.2 331.1,560.6 291.1,577.3 		"/>
		<polygon fill="#64A041" points="291.1,603.2 378,582.9 331.1,560.6 		"/>
		<polygon fill="#64A041" points="343.8,623.4 399.8,642 378,582.9 		"/>
		<polygon fill="#78B040" points="343.8,623.4 378,582.9 291.1,603.2 		"/>
		<polygon fill="#579642" points="257.7,701.2 343.8,623.4 291.1,603.2 		"/>
		<polygon fill="#71AB41" points="349,717.3 399.8,642 343.8,623.4 		"/>
		<polygon fill="#498C42" points="396.4,677.2 399.8,642 349,717.3 		"/>
		<polygon fill="#509142" points="257.7,701.2 349,717.3 343.8,623.4 		"/>
		<polygon fill="#498C42" points="271,721.5 349,717.3 257.7,701.2 		"/>
		<polygon fill="#509142" points="360.2,770 396.4,677.2 349,717.3 		"/>
		<polygon fill="#579642" points="249.3,758.5 281.1,758.5 271,721.5 		"/>
		<polygon fill="#71AB41" points="271,721.5 360.2,770 349,717.3 		"/>
		<polygon fill="#498C42" points="281.1,758.5 360.2,770 271,721.5 		"/>
		<polygon fill="#498C42" points="360.2,770 414.8,725.2 396.4,677.2 		"/>
		<polygon fill="#347F41" points="315.6,854.2 360.2,770 249.3,802.9 		"/>
		<polygon fill="#428841" points="224.2,863.9 315.6,854.2 249.3,802.9 		"/>
		<polygon fill="#2C7B41" points="210.8,940.4 315.6,854.2 224.2,863.9 		"/>
		<polygon fill="#197240" points="210.8,940.4 444.9,940.4 315.6,854.2 		"/>
		<polygon fill="#347F41" points="444.9,940.4 444.9,891.7 315.6,854.2 		"/>
		<polygon fill="#498C42" points="413.2,812.2 427.6,799.2 360.2,770 		"/>
		<polygon fill="#3B8341" points="315.6,854.2 413.2,812.2 360.2,770 		"/>
	</g>
	<g opacity="0.7">
		<polygon fill="#579642" points="1173.1,783.2 1160.4,709.3 1142,661.2 1145.3,626 1123.6,566.9 1121.9,528 1095.1,435.6 
			1063.4,489.2 1036.6,561.3 1036.6,587.2 1023.2,626 1003.2,685.2 1016.5,705.6 994.8,742.5 1026.6,742.5 994.8,786.9 969.7,847.9 
			956.3,924.4 1095.1,924.4 1190.4,924.4 1190.4,875.7 1158.7,796.2 		"/>
		<polygon fill="#7EB640" points="1091,473 1095.1,435.6 1063.4,489.2 		"/>
		<polygon fill="#8DC63F" points="1091,473 1121.9,528 1095.1,435.6 		"/>
		<polygon fill="#78B040" points="1063.4,489.2 1121.9,528 1091,473 		"/>
		<polygon fill="#78B040" points="1036.6,561.3 1076.6,544.6 1063.4,489.2 		"/>
		<polygon fill="#85BD3F" points="1076.6,544.6 1121.9,528 1063.4,489.2 		"/>
		<polygon fill="#78B040" points="1076.6,544.6 1123.6,566.9 1121.9,528 		"/>
		<polygon fill="#78B040" points="1036.6,587.2 1076.6,544.6 1036.6,561.3 		"/>
		<polygon fill="#64A041" points="1036.6,587.2 1123.6,566.9 1076.6,544.6 		"/>
		<polygon fill="#64A041" points="1089.3,607.4 1145.3,626 1123.6,566.9 		"/>
		<polygon fill="#78B040" points="1089.3,607.4 1123.6,566.9 1036.6,587.2 		"/>
		<polygon fill="#579642" points="1003.2,685.2 1089.3,607.4 1036.6,587.2 		"/>
		<polygon fill="#71AB41" points="1094.5,701.3 1145.3,626 1089.3,607.4 		"/>
		<polygon fill="#498C42" points="1142,661.2 1145.3,626 1094.5,701.3 		"/>
		<polygon fill="#509142" points="1003.2,685.2 1094.5,701.3 1089.3,607.4 		"/>
		<polygon fill="#498C42" points="1016.5,705.6 1094.5,701.3 1003.2,685.2 		"/>
		<polygon fill="#509142" points="1105.7,754 1142,661.2 1094.5,701.3 		"/>
		<polygon fill="#579642" points="994.8,742.5 1026.6,742.5 1016.5,705.6 		"/>
		<polygon fill="#71AB41" points="1016.5,705.6 1105.7,754 1094.5,701.3 		"/>
		<polygon fill="#498C42" points="1026.6,742.5 1105.7,754 1016.5,705.6 		"/>
		<polygon fill="#498C42" points="1105.7,754 1160.4,709.3 1142,661.2 		"/>
		<polygon fill="#347F41" points="1061.1,838.2 1105.7,754 994.8,786.9 		"/>
		<polygon fill="#428841" points="969.7,847.9 1061.1,838.2 994.8,786.9 		"/>
		<polygon fill="#2C7B41" points="956.3,924.4 1061.1,838.2 969.7,847.9 		"/>
		<polygon fill="#197240" points="956.3,924.4 1190.4,924.4 1061.1,838.2 		"/>
		<polygon fill="#347F41" points="1190.4,924.4 1190.4,875.7 1061.1,838.2 		"/>
		<polygon fill="#498C42" points="1158.7,796.2 1173.1,783.2 1105.7,754 		"/>
		<polygon fill="#3B8341" points="1061.1,838.2 1158.7,796.2 1105.7,754 		"/>
	</g>
	<g opacity="0.7">
		<polygon fill="#579642" points="1306.1,790.7 1272.4,743.6 1306.1,743.6 1283.1,704.3 1297.3,682.7 1276,619.9 1261.7,578.6 
			1261.7,551.1 1233.3,474.5 1199.6,417.6 1171.2,515.8 1169.4,557 1146.3,619.9 1149.8,657.2 1130.3,708.2 1116.8,786.8 
			1132.1,800.6 1098.3,885 1098.3,936.8 1199.6,936.8 1347,936.8 1332.8,855.5 		"/>
		<polygon fill="#7EB640" points="1204,457.3 1233.3,474.5 1199.6,417.6 		"/>
		<polygon fill="#8DC63F" points="1171.2,515.8 1204,457.3 1199.6,417.6 		"/>
		<polygon fill="#78B040" points="1171.2,515.8 1233.3,474.5 1204,457.3 		"/>
		<polygon fill="#78B040" points="1219.2,533.3 1261.7,551.1 1233.3,474.5 		"/>
		<polygon fill="#85BD3F" points="1219.2,533.3 1233.3,474.5 1171.2,515.8 		"/>
		<polygon fill="#78B040" points="1169.4,557 1219.2,533.3 1171.2,515.8 		"/>
		<polygon fill="#78B040" points="1261.7,578.6 1261.7,551.1 1219.2,533.3 		"/>
		<polygon fill="#64A041" points="1169.4,557 1261.7,578.6 1219.2,533.3 		"/>
		<polygon fill="#64A041" points="1146.3,619.9 1205.8,600 1169.4,557 		"/>
		<polygon fill="#78B040" points="1205.8,600 1261.7,578.6 1169.4,557 		"/>
		<polygon fill="#579642" points="1205.8,600 1297.3,682.7 1261.7,578.6 		"/>
		<polygon fill="#71AB41" points="1200.3,699.8 1205.8,600 1146.3,619.9 		"/>
		<polygon fill="#498C42" points="1149.8,657.2 1200.3,699.8 1146.3,619.9 		"/>
		<polygon fill="#509142" points="1200.3,699.8 1297.3,682.7 1205.8,600 		"/>
		<polygon fill="#498C42" points="1283.1,704.3 1297.3,682.7 1200.3,699.8 		"/>
		<polygon fill="#509142" points="1188.4,755.8 1200.3,699.8 1149.8,657.2 		"/>
		<polygon fill="#579642" points="1272.4,743.6 1306.1,743.6 1283.1,704.3 		"/>
		<polygon fill="#71AB41" points="1188.4,755.8 1283.1,704.3 1200.3,699.8 		"/>
		<polygon fill="#498C42" points="1272.4,743.6 1283.1,704.3 1188.4,755.8 		"/>
		<polygon fill="#498C42" points="1130.3,708.2 1188.4,755.8 1149.8,657.2 		"/>
		<polygon fill="#347F41" points="1235.7,845.3 1306.1,790.7 1188.4,755.8 		"/>
		<polygon fill="#428841" points="1235.7,845.3 1332.8,855.5 1306.1,790.7 		"/>
		<polygon fill="#2C7B41" points="1235.7,845.3 1347,936.8 1332.8,855.5 		"/>
		<polygon fill="#197240" points="1098.3,936.8 1347,936.8 1235.7,845.3 		"/>
		<polygon fill="#347F41" points="1098.3,936.8 1235.7,845.3 1098.3,885 		"/>
		<polygon fill="#498C42" points="1132.1,800.6 1188.4,755.8 1116.8,786.8 		"/>
		<polygon fill="#3B8341" points="1132.1,800.6 1235.7,845.3 1188.4,755.8 		"/>
	</g>
	<g opacity="0.7">
		<polygon fill="#579642" points="773.9,796.8 758.7,708.5 736.7,651.1 740.7,609.1 714.7,538.5 712.8,492.1 680.8,381.7 
			642.9,445.8 610.9,531.9 610.9,562.8 595,609.1 571,679.8 587,704.1 561,748.2 598.9,748.2 561,801.2 531.1,874.1 515.1,965.4 
			680.8,965.4 794.6,965.4 794.6,907.2 756.7,812.2 		"/>
		<polygon fill="#7EB640" points="675.8,426.4 680.8,381.7 642.9,445.8 		"/>
		<polygon fill="#8DC63F" points="675.8,426.4 712.8,492.1 680.8,381.7 		"/>
		<polygon fill="#78B040" points="642.9,445.8 712.8,492.1 675.8,426.4 		"/>
		<polygon fill="#78B040" points="610.9,531.9 658.7,511.9 642.9,445.8 		"/>
		<polygon fill="#85BD3F" points="658.7,511.9 712.8,492.1 642.9,445.8 		"/>
		<polygon fill="#78B040" points="658.7,511.9 714.7,538.5 712.8,492.1 		"/>
		<polygon fill="#78B040" points="610.9,562.8 658.7,511.9 610.9,531.9 		"/>
		<polygon fill="#64A041" points="610.9,562.8 714.7,538.5 658.7,511.9 		"/>
		<polygon fill="#64A041" points="673.8,586.8 740.7,609.1 714.7,538.5 		"/>
		<polygon fill="#78B040" points="673.8,586.8 714.7,538.5 610.9,562.8 		"/>
		<polygon fill="#579642" points="571,679.8 673.8,586.8 610.9,562.8 		"/>
		<polygon fill="#71AB41" points="680,699 740.7,609.1 673.8,586.8 		"/>
		<polygon fill="#498C42" points="736.7,651.1 740.7,609.1 680,699 		"/>
		<polygon fill="#509142" points="571,679.8 680,699 673.8,586.8 		"/>
		<polygon fill="#498C42" points="587,704.1 680,699 571,679.8 		"/>
		<polygon fill="#509142" points="693.4,761.9 736.7,651.1 680,699 		"/>
		<polygon fill="#579642" points="561,748.2 598.9,748.2 587,704.1 		"/>
		<polygon fill="#71AB41" points="587,704.1 693.4,761.9 680,699 		"/>
		<polygon fill="#498C42" points="598.9,748.2 693.4,761.9 587,704.1 		"/>
		<polygon fill="#498C42" points="693.4,761.9 758.7,708.5 736.7,651.1 		"/>
		<polygon fill="#347F41" points="640.2,862.5 693.4,761.9 561,801.2 		"/>
		<polygon fill="#428841" points="531.1,874.1 640.2,862.5 561,801.2 		"/>
		<polygon fill="#2C7B41" points="515.1,965.4 640.2,862.5 531.1,874.1 		"/>
		<polygon fill="#197240" points="515.1,965.4 794.6,965.4 640.2,862.5 		"/>
		<polygon fill="#347F41" points="794.6,965.4 794.6,907.2 640.2,862.5 		"/>
		<polygon fill="#498C42" points="756.7,812.2 773.9,796.8 693.4,761.9 		"/>
		<polygon fill="#3B8341" points="640.2,862.5 756.7,812.2 693.4,761.9 		"/>
	</g>
	<g opacity="0.7">
		<polygon fill="#579642" points="308.6,809.5 293.2,720.2 271,662.1 275,619.7 248.8,548.2 246.8,501.4 214.5,389.7 176.1,454.5 
			143.8,541.5 143.8,572.8 127.6,619.7 104.4,688.1 104.4,692.7 119.6,715.7 104.4,741.5 104.4,760.4 131.7,760.4 104.4,798.4 
			104.4,980 329.6,980 329.6,921.1 291.2,825.1 		"/>
		<polygon fill="#7EB640" points="209.4,434.9 214.5,389.7 176.1,454.5 		"/>
		<polygon fill="#8DC63F" points="209.4,434.9 246.8,501.4 214.5,389.7 		"/>
		<polygon fill="#78B040" points="176.1,454.5 246.8,501.4 209.4,434.9 		"/>
		<polygon fill="#78B040" points="143.8,541.5 192.1,521.3 176.1,454.5 		"/>
		<polygon fill="#85BD3F" points="192.1,521.3 246.8,501.4 176.1,454.5 		"/>
		<polygon fill="#78B040" points="192.1,521.3 248.8,548.2 246.8,501.4 		"/>
		<polygon fill="#78B040" points="143.8,572.8 192.1,521.3 143.8,541.5 		"/>
		<polygon fill="#64A041" points="143.8,572.8 248.8,548.2 192.1,521.3 		"/>
		<polygon fill="#64A041" points="207.4,597.1 275,619.7 248.8,548.2 		"/>
		<polygon fill="#78B040" points="207.4,597.1 248.8,548.2 143.8,572.8 		"/>
		<polygon fill="#579642" points="104.4,688.2 104.4,690.2 207.4,597.1 143.8,572.8 		"/>
		<polygon fill="#71AB41" points="213.7,710.5 275,619.7 207.4,597.1 		"/>
		<polygon fill="#498C42" points="271,662.1 275,619.7 213.7,710.5 		"/>
		<polygon fill="#509142" points="104.4,690.2 104.4,691.3 213.7,710.5 207.4,597.1 		"/>
		<polygon fill="#498C42" points="104.4,692.7 119.6,715.7 213.7,710.5 104.4,691.3 		"/>
		<polygon fill="#509142" points="227.2,774.2 271,662.1 213.7,710.5 		"/>
		<polygon fill="#579642" points="104.4,741.5 104.4,760.4 131.7,760.4 119.6,715.7 		"/>
		<polygon fill="#71AB41" points="119.6,715.7 227.2,774.2 213.7,710.5 		"/>
		<polygon fill="#498C42" points="131.7,760.4 227.2,774.2 119.6,715.7 		"/>
		<polygon fill="#498C42" points="227.2,774.2 293.2,720.2 271,662.1 		"/>
		<polygon fill="#347F41" points="104.4,822.6 173.4,875.9 227.2,774.2 104.4,810.7 		"/>
		<polygon fill="#428841" points="104.4,883.3 173.4,875.9 104.4,822.6 		"/>
		<polygon fill="#2C7B41" points="104.4,932.7 173.4,875.9 104.4,883.3 		"/>
		<polygon fill="#197240" points="104.4,932.7 104.4,980 329.6,980 173.4,875.9 		"/>
		<polygon fill="#347F41" points="329.6,980 329.6,921.1 173.4,875.9 		"/>
		<polygon fill="#498C42" points="291.2,825.1 308.6,809.5 227.2,774.2 		"/>
		<polygon fill="#3B8341" points="173.4,875.9 291.2,825.1 227.2,774.2 		"/>
	</g>
	<g opacity="0.7">
		<polygon fill="#579642" points="605.3,765.6 569.1,719.4 605.3,719.4 580.5,680.9 595.8,659.7 572.9,598.1 557.7,557.6 
			557.7,530.6 527.3,455.5 491.1,399.7 460.7,496 458.8,536.4 434.1,598.1 437.9,634.6 416.9,684.7 402.4,761.8 418.8,775.2 
			382.7,858.1 382.7,908.8 491.1,908.8 649,908.8 633.8,829.2 		"/>
		<polygon fill="#7EB640" points="495.9,438.7 527.3,455.5 491.1,399.7 		"/>
		<polygon fill="#8DC63F" points="460.7,496 495.9,438.7 491.1,399.7 		"/>
		<polygon fill="#78B040" points="460.7,496 527.3,455.5 495.9,438.7 		"/>
		<polygon fill="#78B040" points="512.2,513.2 557.7,530.6 527.3,455.5 		"/>
		<polygon fill="#85BD3F" points="512.2,513.2 527.3,455.5 460.7,496 		"/>
		<polygon fill="#78B040" points="458.8,536.4 512.2,513.2 460.7,496 		"/>
		<polygon fill="#78B040" points="557.7,557.6 557.7,530.6 512.2,513.2 		"/>
		<polygon fill="#64A041" points="458.8,536.4 557.7,557.6 512.2,513.2 		"/>
		<polygon fill="#64A041" points="434.1,598.1 497.8,578.6 458.8,536.4 		"/>
		<polygon fill="#78B040" points="497.8,578.6 557.7,557.6 458.8,536.4 		"/>
		<polygon fill="#579642" points="497.8,578.6 595.8,659.7 557.7,557.6 		"/>
		<polygon fill="#71AB41" points="491.9,676.4 497.8,578.6 434.1,598.1 		"/>
		<polygon fill="#498C42" points="437.9,634.6 491.9,676.4 434.1,598.1 		"/>
		<polygon fill="#509142" points="491.9,676.4 595.8,659.7 497.8,578.6 		"/>
		<polygon fill="#498C42" points="580.5,680.9 595.8,659.7 491.9,676.4 		"/>
		<polygon fill="#509142" points="479.1,731.3 491.9,676.4 437.9,634.6 		"/>
		<polygon fill="#579642" points="569.1,719.4 605.3,719.4 580.5,680.9 		"/>
		<polygon fill="#71AB41" points="479.1,731.3 580.5,680.9 491.9,676.4 		"/>
		<polygon fill="#498C42" points="569.1,719.4 580.5,680.9 479.1,731.3 		"/>
		<polygon fill="#498C42" points="416.9,684.7 479.1,731.3 437.9,634.6 		"/>
		<polygon fill="#347F41" points="529.8,819.1 605.3,765.6 479.1,731.3 		"/>
		<polygon fill="#428841" points="529.8,819.1 633.8,829.2 605.3,765.6 		"/>
		<polygon fill="#2C7B41" points="529.8,819.1 649,908.8 633.8,829.2 		"/>
		<polygon fill="#197240" points="382.7,908.8 649,908.8 529.8,819.1 		"/>
		<polygon fill="#347F41" points="382.7,908.8 529.8,819.1 382.7,858.1 		"/>
		<polygon fill="#498C42" points="418.8,775.2 479.1,731.3 402.4,761.8 		"/>
		<polygon fill="#3B8341" points="418.8,775.2 529.8,819.1 479.1,731.3 		"/>
	</g>
	<g opacity="0.7">
		<polygon fill="#579642" points="464.1,770.9 451.3,696.9 432.9,648.9 436.3,613.7 414.6,554.6 412.9,515.7 386.1,423.3 
			354.4,476.9 327.6,549 327.6,574.9 314.2,613.7 294.2,672.9 307.5,693.2 285.8,730.2 317.6,730.2 285.8,774.6 260.7,835.6 
			247.3,912.1 386.1,912.1 481.4,912.1 481.4,863.4 449.7,783.8 		"/>
		<polygon fill="#7EB640" points="381.9,460.7 386.1,423.3 354.4,476.9 		"/>
		<polygon fill="#8DC63F" points="381.9,460.7 412.9,515.7 386.1,423.3 		"/>
		<polygon fill="#78B040" points="354.4,476.9 412.9,515.7 381.9,460.7 		"/>
		<polygon fill="#78B040" points="327.6,549 367.6,532.3 354.4,476.9 		"/>
		<polygon fill="#85BD3F" points="367.6,532.3 412.9,515.7 354.4,476.9 		"/>
		<polygon fill="#78B040" points="367.6,532.3 414.6,554.6 412.9,515.7 		"/>
		<polygon fill="#78B040" points="327.6,574.9 367.6,532.3 327.6,549 		"/>
		<polygon fill="#64A041" points="327.6,574.9 414.6,554.6 367.6,532.3 		"/>
		<polygon fill="#64A041" points="380.3,595.1 436.3,613.7 414.6,554.6 		"/>
		<polygon fill="#78B040" points="380.3,595.1 414.6,554.6 327.6,574.9 		"/>
		<polygon fill="#579642" points="294.2,672.9 380.3,595.1 327.6,574.9 		"/>
		<polygon fill="#71AB41" points="385.5,689 436.3,613.7 380.3,595.1 		"/>
		<polygon fill="#498C42" points="432.9,648.9 436.3,613.7 385.5,689 		"/>
		<polygon fill="#509142" points="294.2,672.9 385.5,689 380.3,595.1 		"/>
		<polygon fill="#498C42" points="307.5,693.2 385.5,689 294.2,672.9 		"/>
		<polygon fill="#509142" points="396.7,741.7 432.9,648.9 385.5,689 		"/>
		<polygon fill="#579642" points="285.8,730.2 317.6,730.2 307.5,693.2 		"/>
		<polygon fill="#71AB41" points="307.5,693.2 396.7,741.7 385.5,689 		"/>
		<polygon fill="#498C42" points="317.6,730.2 396.7,741.7 307.5,693.2 		"/>
		<polygon fill="#498C42" points="396.7,741.7 451.3,696.9 432.9,648.9 		"/>
		<polygon fill="#347F41" points="352.1,825.9 396.7,741.7 285.8,774.6 		"/>
		<polygon fill="#428841" points="260.7,835.6 352.1,825.9 285.8,774.6 		"/>
		<polygon fill="#2C7B41" points="247.3,912.1 352.1,825.9 260.7,835.6 		"/>
		<polygon fill="#197240" points="247.3,912.1 481.4,912.1 352.1,825.9 		"/>
		<polygon fill="#347F41" points="481.4,912.1 481.4,863.4 352.1,825.9 		"/>
		<polygon fill="#498C42" points="449.7,783.8 464.1,770.9 396.7,741.7 		"/>
		<polygon fill="#3B8341" points="352.1,825.9 449.7,783.8 396.7,741.7 		"/>
	</g>
	<g opacity="0.7">
		<polygon fill="#579642" points="1121.4,728.5 1108.7,654.5 1090.3,606.5 1093.6,571.3 1071.9,512.2 1070.2,473.3 1043.5,380.9 
			1011.7,434.5 984.9,506.6 984.9,532.5 971.6,571.3 951.5,630.5 964.9,650.8 943.1,687.8 974.9,687.8 943.1,732.2 918.1,793.2 
			904.7,869.7 1043.5,869.7 1138.8,869.7 1138.8,821 1107,741.4 		"/>
		<polygon fill="#7EB640" points="1039.3,418.3 1043.5,380.9 1011.7,434.5 		"/>
		<polygon fill="#8DC63F" points="1039.3,418.3 1070.2,473.3 1043.5,380.9 		"/>
		<polygon fill="#78B040" points="1011.7,434.5 1070.2,473.3 1039.3,418.3 		"/>
		<polygon fill="#78B040" points="984.9,506.6 1025,489.9 1011.7,434.5 		"/>
		<polygon fill="#85BD3F" points="1025,489.9 1070.2,473.3 1011.7,434.5 		"/>
		<polygon fill="#78B040" points="1025,489.9 1071.9,512.2 1070.2,473.3 		"/>
		<polygon fill="#78B040" points="984.9,532.5 1025,489.9 984.9,506.6 		"/>
		<polygon fill="#64A041" points="984.9,532.5 1071.9,512.2 1025,489.9 		"/>
		<polygon fill="#64A041" points="1037.6,552.7 1093.6,571.3 1071.9,512.2 		"/>
		<polygon fill="#78B040" points="1037.6,552.7 1071.9,512.2 984.9,532.5 		"/>
		<polygon fill="#579642" points="951.5,630.5 1037.6,552.7 984.9,532.5 		"/>
		<polygon fill="#71AB41" points="1042.8,646.6 1093.6,571.3 1037.6,552.7 		"/>
		<polygon fill="#498C42" points="1090.3,606.5 1093.6,571.3 1042.8,646.6 		"/>
		<polygon fill="#509142" points="951.5,630.5 1042.8,646.6 1037.6,552.7 		"/>
		<polygon fill="#498C42" points="964.9,650.8 1042.8,646.6 951.5,630.5 		"/>
		<polygon fill="#509142" points="1054,699.3 1090.3,606.5 1042.8,646.6 		"/>
		<polygon fill="#579642" points="943.1,687.8 974.9,687.8 964.9,650.8 		"/>
		<polygon fill="#71AB41" points="964.9,650.8 1054,699.3 1042.8,646.6 		"/>
		<polygon fill="#498C42" points="974.9,687.8 1054,699.3 964.9,650.8 		"/>
		<polygon fill="#498C42" points="1054,699.3 1108.7,654.5 1090.3,606.5 		"/>
		<polygon fill="#347F41" points="1009.5,783.5 1054,699.3 943.1,732.2 		"/>
		<polygon fill="#428841" points="918.1,793.2 1009.5,783.5 943.1,732.2 		"/>
		<polygon fill="#2C7B41" points="904.7,869.7 1009.5,783.5 918.1,793.2 		"/>
		<polygon fill="#197240" points="904.7,869.7 1138.8,869.7 1009.5,783.5 		"/>
		<polygon fill="#347F41" points="1138.8,869.7 1138.8,821 1009.5,783.5 		"/>
		<polygon fill="#498C42" points="1107,741.4 1121.4,728.5 1054,699.3 		"/>
		<polygon fill="#3B8341" points="1009.5,783.5 1107,741.4 1054,699.3 		"/>
	</g>
	<g>
		<polygon fill="#579642" points="491.1,844.4 477.6,773.3 458,727.1 461.6,693.4 438.5,636.6 436.7,599.3 408.3,510.4 374.6,562 
			346.1,631.2 346.1,656.1 331.9,693.4 310.6,750.2 324.8,769.8 301.7,805.3 335.5,805.3 301.7,847.9 275.1,906.5 260.9,980 
			408.3,980 509.5,980 509.5,933.2 475.8,856.8 		"/>
		<polygon fill="#7EB640" points="403.9,546.4 408.3,510.4 374.6,562 		"/>
		<polygon fill="#8DC63F" points="403.9,546.4 436.7,599.3 408.3,510.4 		"/>
		<polygon fill="#78B040" points="374.6,562 436.7,599.3 403.9,546.4 		"/>
		<polygon fill="#78B040" points="346.1,631.2 388.7,615.2 374.6,562 		"/>
		<polygon fill="#85BD3F" points="388.7,615.2 436.7,599.3 374.6,562 		"/>
		<polygon fill="#78B040" points="388.7,615.2 438.5,636.6 436.7,599.3 		"/>
		<polygon fill="#78B040" points="346.1,656.1 388.7,615.2 346.1,631.2 		"/>
		<polygon fill="#64A041" points="346.1,656.1 438.5,636.6 388.7,615.2 		"/>
		<polygon fill="#64A041" points="402.1,675.5 461.6,693.4 438.5,636.6 		"/>
		<polygon fill="#78B040" points="402.1,675.5 438.5,636.6 346.1,656.1 		"/>
		<polygon fill="#579642" points="310.6,750.2 402.1,675.5 346.1,656.1 		"/>
		<polygon fill="#71AB41" points="407.6,765.7 461.6,693.4 402.1,675.5 		"/>
		<polygon fill="#498C42" points="458,727.1 461.6,693.4 407.6,765.7 		"/>
		<polygon fill="#509142" points="310.6,750.2 407.6,765.7 402.1,675.5 		"/>
		<polygon fill="#498C42" points="324.8,769.8 407.6,765.7 310.6,750.2 		"/>
		<polygon fill="#509142" points="419.5,816.3 458,727.1 407.6,765.7 		"/>
		<polygon fill="#579642" points="301.7,805.3 335.5,805.3 324.8,769.8 		"/>
		<polygon fill="#71AB41" points="324.8,769.8 419.5,816.3 407.6,765.7 		"/>
		<polygon fill="#498C42" points="335.5,805.3 419.5,816.3 324.8,769.8 		"/>
		<polygon fill="#498C42" points="419.5,816.3 477.6,773.3 458,727.1 		"/>
		<polygon fill="#347F41" points="372.2,897.2 419.5,816.3 301.7,847.9 		"/>
		<polygon fill="#428841" points="275.1,906.5 372.2,897.2 301.7,847.9 		"/>
		<polygon fill="#2C7B41" points="260.9,980 372.2,897.2 275.1,906.5 		"/>
		<polygon fill="#197240" points="260.9,980 509.5,980 372.2,897.2 		"/>
		<polygon fill="#347F41" points="509.5,980 509.5,933.2 372.2,897.2 		"/>
		<polygon fill="#498C42" points="475.8,856.8 491.1,844.4 419.5,816.3 		"/>
		<polygon fill="#3B8341" points="372.2,897.2 475.8,856.8 419.5,816.3 		"/>
	</g>
	<g>
		<polygon fill="#579642" points="702.1,830.2 659.3,781.9 702.1,781.9 672.8,741.6 690.8,719.4 663.8,655 645.8,612.6 645.8,584.4 
			609.7,505.9 566.9,447.5 530.9,548.2 528.6,590.5 499.3,655 503.8,693.2 479,745.6 461.9,826.2 481.3,840.3 438.5,926.9 
			438.5,980 566.9,980 753.9,980 735.9,896.7 		"/>
		<polygon fill="#7EB640" points="572.5,488.3 609.7,505.9 566.9,447.5 		"/>
		<polygon fill="#8DC63F" points="530.9,548.2 572.5,488.3 566.9,447.5 		"/>
		<polygon fill="#78B040" points="530.9,548.2 609.7,505.9 572.5,488.3 		"/>
		<polygon fill="#78B040" points="591.8,566.2 645.8,584.4 609.7,505.9 		"/>
		<polygon fill="#85BD3F" points="591.8,566.2 609.7,505.9 530.9,548.2 		"/>
		<polygon fill="#78B040" points="528.6,590.5 591.8,566.2 530.9,548.2 		"/>
		<polygon fill="#78B040" points="645.8,612.6 645.8,584.4 591.8,566.2 		"/>
		<polygon fill="#64A041" points="528.6,590.5 645.8,612.6 591.8,566.2 		"/>
		<polygon fill="#64A041" points="499.3,655 574.8,634.6 528.6,590.5 		"/>
		<polygon fill="#78B040" points="574.8,634.6 645.8,612.6 528.6,590.5 		"/>
		<polygon fill="#579642" points="574.8,634.6 690.8,719.4 645.8,612.6 		"/>
		<polygon fill="#71AB41" points="567.8,736.9 574.8,634.6 499.3,655 		"/>
		<polygon fill="#498C42" points="503.8,693.2 567.8,736.9 499.3,655 		"/>
		<polygon fill="#509142" points="567.8,736.9 690.8,719.4 574.8,634.6 		"/>
		<polygon fill="#498C42" points="672.8,741.6 690.8,719.4 567.8,736.9 		"/>
		<polygon fill="#509142" points="552.7,794.4 567.8,736.9 503.8,693.2 		"/>
		<polygon fill="#579642" points="659.3,781.9 702.1,781.9 672.8,741.6 		"/>
		<polygon fill="#71AB41" points="552.7,794.4 672.8,741.6 567.8,736.9 		"/>
		<polygon fill="#498C42" points="659.3,781.9 672.8,741.6 552.7,794.4 		"/>
		<polygon fill="#498C42" points="479,745.6 552.7,794.4 503.8,693.2 		"/>
		<polygon fill="#347F41" points="612.7,886.1 702.1,830.2 552.7,794.4 		"/>
		<polygon fill="#428841" points="612.7,886.1 735.9,896.7 702.1,830.2 		"/>
		<polygon fill="#2C7B41" points="612.7,886.1 753.9,980 735.9,896.7 		"/>
		<polygon fill="#197240" points="438.5,980 753.9,980 612.7,886.1 		"/>
		<polygon fill="#347F41" points="438.5,980 612.7,886.1 438.5,926.9 		"/>
		<polygon fill="#498C42" points="481.3,840.3 552.7,794.4 461.9,826.2 		"/>
		<polygon fill="#3B8341" points="481.3,840.3 612.7,886.1 552.7,794.4 		"/>
	</g>
	<g>
		<polygon fill="#579642" points="1356.1,630.3 1356.1,603.4 1320,528.6 1277.2,473 1241.2,568.9 1238.9,609.2 1209.6,670.6 
			1214.2,707 1189.4,756.9 1172.2,833.6 1191.6,847 1148.8,929.4 1148.8,980 1400,980 1400,824.1 1369.6,791.4 1400,791.4 
			1400,775.1 1383.1,753 1400,733.3 1400,729.3 1374.1,670.6 		"/>
		<polygon fill="#7EB640" points="1282.9,511.9 1320,528.6 1277.2,473 		"/>
		<polygon fill="#8DC63F" points="1241.2,568.9 1282.9,511.9 1277.2,473 		"/>
		<polygon fill="#78B040" points="1241.2,568.9 1320,528.6 1282.9,511.9 		"/>
		<polygon fill="#78B040" points="1302.2,586.1 1356.1,603.4 1320,528.6 		"/>
		<polygon fill="#85BD3F" points="1302.2,586.1 1320,528.6 1241.2,568.9 		"/>
		<polygon fill="#78B040" points="1238.9,609.2 1302.2,586.1 1241.2,568.9 		"/>
		<polygon fill="#78B040" points="1356.1,630.3 1356.1,603.4 1302.2,586.1 		"/>
		<polygon fill="#64A041" points="1238.9,609.2 1356.1,630.3 1302.2,586.1 		"/>
		<polygon fill="#64A041" points="1209.6,670.6 1285.1,651.2 1238.9,609.2 		"/>
		<polygon fill="#78B040" points="1285.1,651.2 1356.1,630.3 1238.9,609.2 		"/>
		<polygon fill="#579642" points="1285.1,651.2 1400,731.1 1400,729.4 1356.1,630.3 		"/>
		<polygon fill="#71AB41" points="1278.1,748.6 1285.1,651.2 1209.6,670.6 		"/>
		<polygon fill="#498C42" points="1214.2,707 1278.1,748.6 1209.6,670.6 		"/>
		<polygon fill="#509142" points="1278.1,748.6 1400,732.1 1400,731.1 1285.1,651.2 		"/>
		<polygon fill="#498C42" points="1383.1,753 1400,733.3 1400,732.1 1278.1,748.6 		"/>
		<polygon fill="#509142" points="1263,803.3 1278.1,748.6 1214.2,707 		"/>
		<polygon fill="#579642" points="1369.6,791.4 1400,791.4 1400,775.1 1383.1,753 		"/>
		<polygon fill="#71AB41" points="1263,803.3 1383.1,753 1278.1,748.6 		"/>
		<polygon fill="#498C42" points="1369.6,791.4 1383.1,753 1263,803.3 		"/>
		<polygon fill="#498C42" points="1189.4,756.9 1263,803.3 1214.2,707 		"/>
		<polygon fill="#347F41" points="1323.1,890.6 1400,844.8 1400,834.6 1263,803.3 		"/>
		<polygon fill="#428841" points="1400,896.9 1400,844.8 1323.1,890.6 		"/>
		<polygon fill="#2C7B41" points="1400,939.3 1400,896.9 1323.1,890.6 		"/>
		<polygon fill="#197240" points="1148.8,980 1400,980 1400,939.3 1323.1,890.6 		"/>
		<polygon fill="#347F41" points="1148.8,980 1323.1,890.6 1148.8,929.4 		"/>
		<polygon fill="#498C42" points="1191.6,847 1263,803.3 1172.2,833.6 		"/>
		<polygon fill="#3B8341" points="1191.6,847 1323.1,890.6 1263,803.3 		"/>
	</g>
	<g>
		<polygon fill="#579642" points="901.9,834.7 887.4,758.7 866.5,709.2 870.3,673.1 845.6,612.2 843.6,572.2 813.2,477.1 
			777.1,532.3 746.6,606.5 746.6,633.1 731.4,673.1 708.6,733.9 723.8,754.9 699.1,792.9 735.2,792.9 699.1,838.5 670.5,901.3 
			655.3,980 813.2,980 921.6,980 921.6,929.9 885.5,848.1 		"/>
		<polygon fill="#7EB640" points="808.5,515.6 813.2,477.1 777.1,532.3 		"/>
		<polygon fill="#8DC63F" points="808.5,515.6 843.6,572.2 813.2,477.1 		"/>
		<polygon fill="#78B040" points="777.1,532.3 843.6,572.2 808.5,515.6 		"/>
		<polygon fill="#78B040" points="746.6,606.5 792.2,589.3 777.1,532.3 		"/>
		<polygon fill="#85BD3F" points="792.2,589.3 843.6,572.2 777.1,532.3 		"/>
		<polygon fill="#78B040" points="792.2,589.3 845.6,612.2 843.6,572.2 		"/>
		<polygon fill="#78B040" points="746.6,633.1 792.2,589.3 746.6,606.5 		"/>
		<polygon fill="#64A041" points="746.6,633.1 845.6,612.2 792.2,589.3 		"/>
		<polygon fill="#64A041" points="806.5,653.8 870.3,673.1 845.6,612.2 		"/>
		<polygon fill="#78B040" points="806.5,653.8 845.6,612.2 746.6,633.1 		"/>
		<polygon fill="#579642" points="708.6,733.9 806.5,653.8 746.6,633.1 		"/>
		<polygon fill="#71AB41" points="812.5,750.4 870.3,673.1 806.5,653.8 		"/>
		<polygon fill="#498C42" points="866.5,709.2 870.3,673.1 812.5,750.4 		"/>
		<polygon fill="#509142" points="708.6,733.9 812.5,750.4 806.5,653.8 		"/>
		<polygon fill="#498C42" points="723.8,754.9 812.5,750.4 708.6,733.9 		"/>
		<polygon fill="#509142" points="825.2,804.7 866.5,709.2 812.5,750.4 		"/>
		<polygon fill="#579642" points="699.1,792.9 735.2,792.9 723.8,754.9 		"/>
		<polygon fill="#71AB41" points="723.8,754.9 825.2,804.7 812.5,750.4 		"/>
		<polygon fill="#498C42" points="735.2,792.9 825.2,804.7 723.8,754.9 		"/>
		<polygon fill="#498C42" points="825.2,804.7 887.4,758.7 866.5,709.2 		"/>
		<polygon fill="#347F41" points="774.5,891.4 825.2,804.7 699.1,838.5 		"/>
		<polygon fill="#428841" points="670.5,901.3 774.5,891.4 699.1,838.5 		"/>
		<polygon fill="#2C7B41" points="655.3,980 774.5,891.4 670.5,901.3 		"/>
		<polygon fill="#197240" points="655.3,980 921.6,980 774.5,891.4 		"/>
		<polygon fill="#347F41" points="921.6,980 921.6,929.9 774.5,891.4 		"/>
		<polygon fill="#498C42" points="885.5,848.1 901.9,834.7 825.2,804.7 		"/>
		<polygon fill="#3B8341" points="774.5,891.4 885.5,848.1 825.2,804.7 		"/>
	</g>
	<g>
		<polygon fill="#579642" points="118.7,834.7 104.2,758.7 83.2,709.2 87,673.1 62.3,612.2 60.4,572.2 30,477.1 0,522.9 0,980 
			138.4,980 138.4,929.9 102.3,848.1 		"/>
		<polygon fill="#7EB640" points="0,529 25.2,515.6 30,477.1 0,522.9 		"/>
		<polygon fill="#8DC63F" points="25.2,515.6 60.4,572.2 30,477.1 		"/>
		<polygon fill="#78B040" points="0,529 0,536 60.4,572.2 25.2,515.6 		"/>
		<polygon fill="#78B040" points="0,592.6 8.9,589.3 0,555.6 		"/>
		<polygon fill="#85BD3F" points="0,555.6 8.9,589.3 60.4,572.2 0,536 		"/>
		<polygon fill="#78B040" points="8.9,589.3 62.3,612.2 60.4,572.2 		"/>
		<polygon fill="#78B040" points="0,597.9 8.9,589.3 0,592.6 		"/>
		<polygon fill="#64A041" points="0,597.9 0,625.4 62.3,612.2 8.9,589.3 		"/>
		<polygon fill="#64A041" points="23.3,653.8 87,673.1 62.3,612.2 		"/>
		<polygon fill="#78B040" points="0,645.8 23.3,653.8 62.3,612.2 0,625.4 		"/>
		<polygon fill="#579642" points="0,672.9 23.3,653.8 0,645.8 		"/>
		<polygon fill="#71AB41" points="29.2,750.4 87,673.1 23.3,653.8 		"/>
		<polygon fill="#498C42" points="83.2,709.2 87,673.1 29.2,750.4 		"/>
		<polygon fill="#509142" points="0,672.9 0,745.8 29.2,750.4 23.3,653.8 		"/>
		<polygon fill="#498C42" points="0,751.9 29.2,750.4 0,745.8 		"/>
		<polygon fill="#509142" points="42,804.7 83.2,709.2 29.2,750.4 		"/>
		<polygon fill="#71AB41" points="0,751.9 0,784.1 42,804.7 29.2,750.4 		"/>
		<polygon fill="#498C42" points="0,799.2 42,804.7 0,784.1 		"/>
		<polygon fill="#498C42" points="42,804.7 104.2,758.7 83.2,709.2 		"/>
		<polygon fill="#347F41" points="0,876.5 42,804.7 0,816 		"/>
		<polygon fill="#197240" points="0,980 138.4,980 0,896.6 		"/>
		<polygon fill="#347F41" points="0,896.6 138.4,980 138.4,929.9 0,893.6 		"/>
		<polygon fill="#498C42" points="102.3,848.1 118.7,834.7 42,804.7 		"/>
		<polygon fill="#3B8341" points="0,876.5 0,888 102.3,848.1 42,804.7 		"/>
	</g>
	<g>
		<polygon fill="#579642" points="1075.5,868.1 1064.3,809.5 1048.2,771.4 1051.1,743.5 1032.1,696.6 1030.6,665.8 1007.1,592.6 
			979.3,635.1 955.8,692.2 955.8,712.7 944.1,743.5 926.5,790.4 938.3,806.5 919.2,835.8 947.1,835.8 919.2,871 897.2,919.4 
			885.5,980 1007.1,980 1090.7,980 1090.7,941.4 1062.8,878.3 		"/>
		<polygon fill="#7EB640" points="1003.5,622.2 1007.1,592.6 979.3,635.1 		"/>
		<polygon fill="#8DC63F" points="1003.5,622.2 1030.6,665.8 1007.1,592.6 		"/>
		<polygon fill="#78B040" points="979.3,635.1 1030.6,665.8 1003.5,622.2 		"/>
		<polygon fill="#78B040" points="955.8,692.2 990.9,679 979.3,635.1 		"/>
		<polygon fill="#85BD3F" points="990.9,679 1030.6,665.8 979.3,635.1 		"/>
		<polygon fill="#78B040" points="990.9,679 1032.1,696.6 1030.6,665.8 		"/>
		<polygon fill="#78B040" points="955.8,712.7 990.9,679 955.8,692.2 		"/>
		<polygon fill="#64A041" points="955.8,712.7 1032.1,696.6 990.9,679 		"/>
		<polygon fill="#64A041" points="1002,728.7 1051.1,743.5 1032.1,696.6 		"/>
		<polygon fill="#78B040" points="1002,728.7 1032.1,696.6 955.8,712.7 		"/>
		<polygon fill="#579642" points="926.5,790.4 1002,728.7 955.8,712.7 		"/>
		<polygon fill="#71AB41" points="1006.6,803.1 1051.1,743.5 1002,728.7 		"/>
		<polygon fill="#498C42" points="1048.2,771.4 1051.1,743.5 1006.6,803.1 		"/>
		<polygon fill="#509142" points="926.5,790.4 1006.6,803.1 1002,728.7 		"/>
		<polygon fill="#498C42" points="938.3,806.5 1006.6,803.1 926.5,790.4 		"/>
		<polygon fill="#509142" points="1016.4,844.9 1048.2,771.4 1006.6,803.1 		"/>
		<polygon fill="#579642" points="919.2,835.8 947.1,835.8 938.3,806.5 		"/>
		<polygon fill="#71AB41" points="938.3,806.5 1016.4,844.9 1006.6,803.1 		"/>
		<polygon fill="#498C42" points="947.1,835.8 1016.4,844.9 938.3,806.5 		"/>
		<polygon fill="#498C42" points="1016.4,844.9 1064.3,809.5 1048.2,771.4 		"/>
		<polygon fill="#347F41" points="977.3,911.7 1016.4,844.9 919.2,871 		"/>
		<polygon fill="#428841" points="897.2,919.4 977.3,911.7 919.2,871 		"/>
		<polygon fill="#2C7B41" points="885.5,980 977.3,911.7 897.2,919.4 		"/>
		<polygon fill="#197240" points="885.5,980 1090.7,980 977.3,911.7 		"/>
		<polygon fill="#347F41" points="1090.7,980 1090.7,941.4 977.3,911.7 		"/>
		<polygon fill="#498C42" points="1062.8,878.3 1075.5,868.1 1016.4,844.9 		"/>
		<polygon fill="#3B8341" points="977.3,911.7 1062.8,878.3 1016.4,844.9 		"/>
	</g>
	<g>
		<polygon fill="#579642" points="1013.9,840.6 1002.7,767.5 986.6,720 989.6,685.3 970.5,626.9 969,588.6 945.6,497.3 917.7,550.2 
			894.3,621.4 894.3,647 882.6,685.3 865,743.8 876.7,763.9 857.7,800.4 885.5,800.4 857.7,844.2 835.7,904.5 823.9,980 945.6,980 
			1029.1,980 1029.1,931.9 1001.3,853.3 		"/>
		<polygon fill="#7EB640" points="941.9,534.2 945.6,497.3 917.7,550.2 		"/>
		<polygon fill="#8DC63F" points="941.9,534.2 969,588.6 945.6,497.3 		"/>
		<polygon fill="#78B040" points="917.7,550.2 969,588.6 941.9,534.2 		"/>
		<polygon fill="#78B040" points="894.3,621.4 929.4,604.9 917.7,550.2 		"/>
		<polygon fill="#85BD3F" points="929.4,604.9 969,588.6 917.7,550.2 		"/>
		<polygon fill="#78B040" points="929.4,604.9 970.5,626.9 969,588.6 		"/>
		<polygon fill="#78B040" points="894.3,647 929.4,604.9 894.3,621.4 		"/>
		<polygon fill="#64A041" points="894.3,647 970.5,626.9 929.4,604.9 		"/>
		<polygon fill="#64A041" points="940.4,666.9 989.6,685.3 970.5,626.9 		"/>
		<polygon fill="#78B040" points="940.4,666.9 970.5,626.9 894.3,647 		"/>
		<polygon fill="#579642" points="865,743.8 940.4,666.9 894.3,647 		"/>
		<polygon fill="#71AB41" points="945,759.6 989.6,685.3 940.4,666.9 		"/>
		<polygon fill="#498C42" points="986.6,720 989.6,685.3 945,759.6 		"/>
		<polygon fill="#509142" points="865,743.8 945,759.6 940.4,666.9 		"/>
		<polygon fill="#498C42" points="876.7,763.9 945,759.6 865,743.8 		"/>
		<polygon fill="#509142" points="954.8,811.7 986.6,720 945,759.6 		"/>
		<polygon fill="#579642" points="857.7,800.4 885.5,800.4 876.7,763.9 		"/>
		<polygon fill="#71AB41" points="876.7,763.9 954.8,811.7 945,759.6 		"/>
		<polygon fill="#498C42" points="885.5,800.4 954.8,811.7 876.7,763.9 		"/>
		<polygon fill="#498C42" points="954.8,811.7 1002.7,767.5 986.6,720 		"/>
		<polygon fill="#347F41" points="915.8,894.9 954.8,811.7 857.7,844.2 		"/>
		<polygon fill="#428841" points="835.7,904.5 915.8,894.9 857.7,844.2 		"/>
		<polygon fill="#2C7B41" points="823.9,980 915.8,894.9 835.7,904.5 		"/>
		<polygon fill="#197240" points="823.9,980 1029.1,980 915.8,894.9 		"/>
		<polygon fill="#347F41" points="1029.1,980 1029.1,931.9 915.8,894.9 		"/>
		<polygon fill="#498C42" points="1001.3,853.3 1013.9,840.6 954.8,811.7 		"/>
		<polygon fill="#3B8341" points="915.8,894.9 1001.3,853.3 954.8,811.7 		"/>
	</g>
	<g>
		<polygon fill="#579642" points="797.8,868.1 786.6,809.5 770.5,771.4 773.4,743.5 754.4,696.6 752.9,665.8 729.4,592.6 
			701.6,635.1 678.1,692.2 678.1,712.7 666.4,743.5 648.8,790.4 660.6,806.5 641.5,835.8 669.4,835.8 641.5,871 619.5,919.4 
			607.8,980 729.4,980 813,980 813,941.4 785.1,878.3 		"/>
		<polygon fill="#7EB640" points="725.8,622.2 729.4,592.6 701.6,635.1 		"/>
		<polygon fill="#8DC63F" points="725.8,622.2 752.9,665.8 729.4,592.6 		"/>
		<polygon fill="#78B040" points="701.6,635.1 752.9,665.8 725.8,622.2 		"/>
		<polygon fill="#78B040" points="678.1,692.2 713.2,679 701.6,635.1 		"/>
		<polygon fill="#85BD3F" points="713.2,679 752.9,665.8 701.6,635.1 		"/>
		<polygon fill="#78B040" points="713.2,679 754.4,696.6 752.9,665.8 		"/>
		<polygon fill="#78B040" points="678.1,712.7 713.2,679 678.1,692.2 		"/>
		<polygon fill="#64A041" points="678.1,712.7 754.4,696.6 713.2,679 		"/>
		<polygon fill="#64A041" points="724.3,728.7 773.4,743.5 754.4,696.6 		"/>
		<polygon fill="#78B040" points="724.3,728.7 754.4,696.6 678.1,712.7 		"/>
		<polygon fill="#579642" points="648.8,790.4 724.3,728.7 678.1,712.7 		"/>
		<polygon fill="#71AB41" points="728.9,803.1 773.4,743.5 724.3,728.7 		"/>
		<polygon fill="#498C42" points="770.5,771.4 773.4,743.5 728.9,803.1 		"/>
		<polygon fill="#509142" points="648.8,790.4 728.9,803.1 724.3,728.7 		"/>
		<polygon fill="#498C42" points="660.6,806.5 728.9,803.1 648.8,790.4 		"/>
		<polygon fill="#509142" points="738.7,844.9 770.5,771.4 728.9,803.1 		"/>
		<polygon fill="#579642" points="641.5,835.8 669.4,835.8 660.6,806.5 		"/>
		<polygon fill="#71AB41" points="660.6,806.5 738.7,844.9 728.9,803.1 		"/>
		<polygon fill="#498C42" points="669.4,835.8 738.7,844.9 660.6,806.5 		"/>
		<polygon fill="#498C42" points="738.7,844.9 786.6,809.5 770.5,771.4 		"/>
		<polygon fill="#347F41" points="699.6,911.7 738.7,844.9 641.5,871 		"/>
		<polygon fill="#428841" points="619.5,919.4 699.6,911.7 641.5,871 		"/>
		<polygon fill="#2C7B41" points="607.8,980 699.6,911.7 619.5,919.4 		"/>
		<polygon fill="#197240" points="607.8,980 813,980 699.6,911.7 		"/>
		<polygon fill="#347F41" points="813,980 813,941.4 699.6,911.7 		"/>
		<polygon fill="#498C42" points="785.1,878.3 797.8,868.1 738.7,844.9 		"/>
		<polygon fill="#3B8341" points="699.6,911.7 785.1,878.3 738.7,844.9 		"/>
	</g>
	<g>
		<polygon fill="#579642" points="578.5,868.1 567.3,809.5 551.2,771.4 554.1,743.5 535.1,696.6 533.6,665.8 510.2,592.6 
			482.3,635.1 458.9,692.2 458.9,712.7 447.2,743.5 429.6,790.4 441.3,806.5 422.2,835.8 450.1,835.8 422.2,871 400.3,919.4 
			388.5,980 510.2,980 593.7,980 593.7,941.4 565.9,878.3 		"/>
		<polygon fill="#7EB640" points="506.5,622.2 510.2,592.6 482.3,635.1 		"/>
		<polygon fill="#8DC63F" points="506.5,622.2 533.6,665.8 510.2,592.6 		"/>
		<polygon fill="#78B040" points="482.3,635.1 533.6,665.8 506.5,622.2 		"/>
		<polygon fill="#78B040" points="458.9,692.2 494,679 482.3,635.1 		"/>
		<polygon fill="#85BD3F" points="494,679 533.6,665.8 482.3,635.1 		"/>
		<polygon fill="#78B040" points="494,679 535.1,696.6 533.6,665.8 		"/>
		<polygon fill="#78B040" points="458.9,712.7 494,679 458.9,692.2 		"/>
		<polygon fill="#64A041" points="458.9,712.7 535.1,696.6 494,679 		"/>
		<polygon fill="#64A041" points="505,728.7 554.1,743.5 535.1,696.6 		"/>
		<polygon fill="#78B040" points="505,728.7 535.1,696.6 458.9,712.7 		"/>
		<polygon fill="#579642" points="429.6,790.4 505,728.7 458.9,712.7 		"/>
		<polygon fill="#71AB41" points="509.6,803.1 554.1,743.5 505,728.7 		"/>
		<polygon fill="#498C42" points="551.2,771.4 554.1,743.5 509.6,803.1 		"/>
		<polygon fill="#509142" points="429.6,790.4 509.6,803.1 505,728.7 		"/>
		<polygon fill="#498C42" points="441.3,806.5 509.6,803.1 429.6,790.4 		"/>
		<polygon fill="#509142" points="519.4,844.9 551.2,771.4 509.6,803.1 		"/>
		<polygon fill="#579642" points="422.2,835.8 450.1,835.8 441.3,806.5 		"/>
		<polygon fill="#71AB41" points="441.3,806.5 519.4,844.9 509.6,803.1 		"/>
		<polygon fill="#498C42" points="450.1,835.8 519.4,844.9 441.3,806.5 		"/>
		<polygon fill="#498C42" points="519.4,844.9 567.3,809.5 551.2,771.4 		"/>
		<polygon fill="#347F41" points="480.4,911.7 519.4,844.9 422.2,871 		"/>
		<polygon fill="#428841" points="400.3,919.4 480.4,911.7 422.2,871 		"/>
		<polygon fill="#2C7B41" points="388.5,980 480.4,911.7 400.3,919.4 		"/>
		<polygon fill="#197240" points="388.5,980 593.7,980 480.4,911.7 		"/>
		<polygon fill="#347F41" points="593.7,980 593.7,941.4 480.4,911.7 		"/>
		<polygon fill="#498C42" points="565.9,878.3 578.5,868.1 519.4,844.9 		"/>
		<polygon fill="#3B8341" points="480.4,911.7 565.9,878.3 519.4,844.9 		"/>
	</g>
	<g>
		<polygon fill="#579642" points="190,868.1 178.8,809.5 162.7,771.4 165.6,743.5 146.6,696.6 145.1,665.8 121.6,592.6 93.8,635.1 
			70.3,692.2 70.3,712.7 58.6,743.5 41,790.4 52.8,806.5 33.7,835.8 61.6,835.8 33.7,871 11.7,919.4 0,980 121.6,980 205.2,980 
			205.2,941.4 177.3,878.3 		"/>
		<polygon fill="#7EB640" points="118,622.2 121.6,592.6 93.8,635.1 		"/>
		<polygon fill="#8DC63F" points="118,622.2 145.1,665.8 121.6,592.6 		"/>
		<polygon fill="#78B040" points="93.8,635.1 145.1,665.8 118,622.2 		"/>
		<polygon fill="#78B040" points="70.3,692.2 105.4,679 93.8,635.1 		"/>
		<polygon fill="#85BD3F" points="105.4,679 145.1,665.8 93.8,635.1 		"/>
		<polygon fill="#78B040" points="105.4,679 146.6,696.6 145.1,665.8 		"/>
		<polygon fill="#78B040" points="70.3,712.7 105.4,679 70.3,692.2 		"/>
		<polygon fill="#64A041" points="70.3,712.7 146.6,696.6 105.4,679 		"/>
		<polygon fill="#64A041" points="116.5,728.7 165.6,743.5 146.6,696.6 		"/>
		<polygon fill="#78B040" points="116.5,728.7 146.6,696.6 70.3,712.7 		"/>
		<polygon fill="#579642" points="41,790.4 116.5,728.7 70.3,712.7 		"/>
		<polygon fill="#71AB41" points="121.1,803.1 165.6,743.5 116.5,728.7 		"/>
		<polygon fill="#498C42" points="162.7,771.4 165.6,743.5 121.1,803.1 		"/>
		<polygon fill="#509142" points="41,790.4 121.1,803.1 116.5,728.7 		"/>
		<polygon fill="#498C42" points="52.8,806.5 121.1,803.1 41,790.4 		"/>
		<polygon fill="#509142" points="130.9,844.9 162.7,771.4 121.1,803.1 		"/>
		<polygon fill="#579642" points="33.7,835.8 61.6,835.8 52.8,806.5 		"/>
		<polygon fill="#71AB41" points="52.8,806.5 130.9,844.9 121.1,803.1 		"/>
		<polygon fill="#498C42" points="61.6,835.8 130.9,844.9 52.8,806.5 		"/>
		<polygon fill="#498C42" points="130.9,844.9 178.8,809.5 162.7,771.4 		"/>
		<polygon fill="#347F41" points="91.8,911.7 130.9,844.9 33.7,871 		"/>
		<polygon fill="#428841" points="11.7,919.4 91.8,911.7 33.7,871 		"/>
		<polygon fill="#2C7B41" points="0,980 91.8,911.7 11.7,919.4 		"/>
		<polygon fill="#197240" points="0,980 205.2,980 91.8,911.7 		"/>
		<polygon fill="#347F41" points="205.2,980 205.2,941.4 91.8,911.7 		"/>
		<polygon fill="#498C42" points="177.3,878.3 190,868.1 130.9,844.9 		"/>
		<polygon fill="#3B8341" points="91.8,911.7 177.3,878.3 130.9,844.9 		"/>
	</g>
	<g>
		<polygon fill="#579642" points="1236,855.7 1204.2,815.5 1236,815.5 1214.3,782.1 1227.6,763.7 1207.6,710.2 1194.2,675.1 
			1194.2,651.6 1167.4,586.4 1135.7,537.9 1108.9,621.6 1107.2,656.7 1085.5,710.2 1088.8,741.9 1070.4,785.4 1057.7,852.3 
			1072.1,864 1040.3,935.9 1040.3,980 1135.7,980 1274.5,980 1261.1,910.8 		"/>
		<polygon fill="#7EB640" points="1139.8,571.8 1167.4,586.4 1135.7,537.9 		"/>
		<polygon fill="#8DC63F" points="1108.9,621.6 1139.8,571.8 1135.7,537.9 		"/>
		<polygon fill="#78B040" points="1108.9,621.6 1167.4,586.4 1139.8,571.8 		"/>
		<polygon fill="#78B040" points="1154.2,636.5 1194.2,651.6 1167.4,586.4 		"/>
		<polygon fill="#85BD3F" points="1154.2,636.5 1167.4,586.4 1108.9,621.6 		"/>
		<polygon fill="#78B040" points="1107.2,656.7 1154.2,636.5 1108.9,621.6 		"/>
		<polygon fill="#78B040" points="1194.2,675.1 1194.2,651.6 1154.2,636.5 		"/>
		<polygon fill="#64A041" points="1107.2,656.7 1194.2,675.1 1154.2,636.5 		"/>
		<polygon fill="#64A041" points="1085.5,710.2 1141.5,693.3 1107.2,656.7 		"/>
		<polygon fill="#78B040" points="1141.5,693.3 1194.2,675.1 1107.2,656.7 		"/>
		<polygon fill="#579642" points="1141.5,693.3 1227.6,763.7 1194.2,675.1 		"/>
		<polygon fill="#71AB41" points="1136.3,778.2 1141.5,693.3 1085.5,710.2 		"/>
		<polygon fill="#498C42" points="1088.8,741.9 1136.3,778.2 1085.5,710.2 		"/>
		<polygon fill="#509142" points="1136.3,778.2 1227.6,763.7 1141.5,693.3 		"/>
		<polygon fill="#498C42" points="1214.3,782.1 1227.6,763.7 1136.3,778.2 		"/>
		<polygon fill="#509142" points="1125.1,825.9 1136.3,778.2 1088.8,741.9 		"/>
		<polygon fill="#579642" points="1204.2,815.5 1236,815.5 1214.3,782.1 		"/>
		<polygon fill="#71AB41" points="1125.1,825.9 1214.3,782.1 1136.3,778.2 		"/>
		<polygon fill="#498C42" points="1204.2,815.5 1214.3,782.1 1125.1,825.9 		"/>
		<polygon fill="#498C42" points="1070.4,785.4 1125.1,825.9 1088.8,741.9 		"/>
		<polygon fill="#347F41" points="1169.7,902.1 1236,855.7 1125.1,825.9 		"/>
		<polygon fill="#428841" points="1169.7,902.1 1261.1,910.8 1236,855.7 		"/>
		<polygon fill="#2C7B41" points="1169.7,902.1 1274.5,980 1261.1,910.8 		"/>
		<polygon fill="#197240" points="1040.3,980 1274.5,980 1169.7,902.1 		"/>
		<polygon fill="#347F41" points="1040.3,980 1169.7,902.1 1040.3,935.9 		"/>
		<polygon fill="#498C42" points="1072.1,864 1125.1,825.9 1057.7,852.3 		"/>
		<polygon fill="#3B8341" points="1072.1,864 1169.7,902.1 1125.1,825.9 		"/>
	</g>
	<g>
		<polygon fill="#579642" points="339.5,855.7 307.7,815.5 339.5,815.5 317.7,782.1 331.1,763.7 311,710.2 297.7,675.1 297.7,651.6 
			270.9,586.4 239.1,537.9 212.4,621.6 210.7,656.7 189,710.2 192.3,741.9 173.9,785.4 161.2,852.3 175.6,864 143.8,935.9 
			143.8,980 239.1,980 377.9,980 364.6,910.8 		"/>
		<polygon fill="#7EB640" points="243.3,571.8 270.9,586.4 239.1,537.9 		"/>
		<polygon fill="#8DC63F" points="212.4,621.6 243.3,571.8 239.1,537.9 		"/>
		<polygon fill="#78B040" points="212.4,621.6 270.9,586.4 243.3,571.8 		"/>
		<polygon fill="#78B040" points="257.6,636.5 297.7,651.6 270.9,586.4 		"/>
		<polygon fill="#85BD3F" points="257.6,636.5 270.9,586.4 212.4,621.6 		"/>
		<polygon fill="#78B040" points="210.7,656.7 257.6,636.5 212.4,621.6 		"/>
		<polygon fill="#78B040" points="297.7,675.1 297.7,651.6 257.6,636.5 		"/>
		<polygon fill="#64A041" points="210.7,656.7 297.7,675.1 257.6,636.5 		"/>
		<polygon fill="#64A041" points="189,710.2 245,693.3 210.7,656.7 		"/>
		<polygon fill="#78B040" points="245,693.3 297.7,675.1 210.7,656.7 		"/>
		<polygon fill="#579642" points="245,693.3 331.1,763.7 297.7,675.1 		"/>
		<polygon fill="#71AB41" points="239.8,778.2 245,693.3 189,710.2 		"/>
		<polygon fill="#498C42" points="192.3,741.9 239.8,778.2 189,710.2 		"/>
		<polygon fill="#509142" points="239.8,778.2 331.1,763.7 245,693.3 		"/>
		<polygon fill="#498C42" points="317.7,782.1 331.1,763.7 239.8,778.2 		"/>
		<polygon fill="#509142" points="228.6,825.9 239.8,778.2 192.3,741.9 		"/>
		<polygon fill="#579642" points="307.7,815.5 339.5,815.5 317.7,782.1 		"/>
		<polygon fill="#71AB41" points="228.6,825.9 317.7,782.1 239.8,778.2 		"/>
		<polygon fill="#498C42" points="307.7,815.5 317.7,782.1 228.6,825.9 		"/>
		<polygon fill="#498C42" points="173.9,785.4 228.6,825.9 192.3,741.9 		"/>
		<polygon fill="#347F41" points="273.2,902.1 339.5,855.7 228.6,825.9 		"/>
		<polygon fill="#428841" points="273.2,902.1 364.6,910.8 339.5,855.7 		"/>
		<polygon fill="#2C7B41" points="273.2,902.1 377.9,980 364.6,910.8 		"/>
		<polygon fill="#197240" points="143.8,980 377.9,980 273.2,902.1 		"/>
		<polygon fill="#347F41" points="143.8,980 273.2,902.1 143.8,935.9 		"/>
		<polygon fill="#498C42" points="175.6,864 228.6,825.9 161.2,852.3 		"/>
		<polygon fill="#3B8341" points="175.6,864 273.2,902.1 228.6,825.9 		"/>
	</g>
	<g>
		<g>
			<polygon fill="#579642" points="1053.9,951.6 1025.4,882.4 991.7,830.8 963.3,919.7 961.5,957 952.1,980 1055.2,980 
				1053.9,976.5 			"/>
			<polygon fill="#7EB640" points="996.1,866.8 1025.4,882.4 991.7,830.8 			"/>
			<polygon fill="#8DC63F" points="963.3,919.7 996.1,866.8 991.7,830.8 			"/>
			<polygon fill="#78B040" points="963.3,919.7 1025.4,882.4 996.1,866.8 			"/>
			<polygon fill="#78B040" points="1011.3,935.6 1053.9,951.6 1025.4,882.4 			"/>
			<polygon fill="#85BD3F" points="1011.3,935.6 1025.4,882.4 963.3,919.7 			"/>
			<polygon fill="#78B040" points="961.5,957 1011.3,935.6 963.3,919.7 			"/>
			<polygon fill="#78B040" points="1053.9,976.5 1053.9,951.6 1011.3,935.6 			"/>
			<polygon fill="#64A041" points="961.5,957 1053.9,976.5 1011.3,935.6 			"/>
			<polygon fill="#64A041" points="952.1,980 983.1,980 961.5,957 			"/>
			<polygon fill="#78B040" points="983.1,980 1043.7,980 1053.9,976.5 961.5,957 			"/>
			<polygon fill="#579642" points="1043.7,980 1055.2,980 1053.9,976.5 			"/>
		</g>
		<g>
			<polygon fill="#579642" points="871.4,864.8 869.1,817.5 833.1,704.8 790.3,770.2 754.2,858 754.2,889.6 736.2,936.9 720,980 
				896.3,980 896.2,979.7 900.7,936.9 			"/>
			<polygon fill="#7EB640" points="827.5,750.5 833.1,704.8 790.3,770.2 			"/>
			<polygon fill="#8DC63F" points="827.5,750.5 869.1,817.5 833.1,704.8 			"/>
			<polygon fill="#78B040" points="790.3,770.2 869.1,817.5 827.5,750.5 			"/>
			<polygon fill="#78B040" points="754.2,858 808.2,837.7 790.3,770.2 			"/>
			<polygon fill="#85BD3F" points="808.2,837.7 869.1,817.5 790.3,770.2 			"/>
			<polygon fill="#78B040" points="808.2,837.7 871.4,864.8 869.1,817.5 			"/>
			<polygon fill="#78B040" points="754.2,889.6 808.2,837.7 754.2,858 			"/>
			<polygon fill="#64A041" points="754.2,889.6 871.4,864.8 808.2,837.7 			"/>
			<polygon fill="#64A041" points="825.2,914.1 900.7,936.9 871.4,864.8 			"/>
			<polygon fill="#78B040" points="825.2,914.1 871.4,864.8 754.2,889.6 			"/>
			<polygon fill="#579642" points="720.1,980 744.6,980 825.2,914.1 754.2,889.6 			"/>
			<polygon fill="#71AB41" points="829.2,980 868.5,980 900.7,936.9 825.2,914.1 			"/>
			<polygon fill="#498C42" points="895.8,980 896.2,979.7 900.7,936.9 868.5,980 			"/>
			<polygon fill="#509142" points="744.6,980 829.2,980 825.2,914.1 			"/>
		</g>
		<g>
			<polygon fill="#579642" points="161.1,864.8 158.8,817.5 122.8,704.8 80,770.2 43.9,858 43.9,889.6 25.9,936.9 9.7,980 186,980 
				185.8,979.7 190.4,936.9 			"/>
			<polygon fill="#7EB640" points="117.1,750.5 122.8,704.8 80,770.2 			"/>
			<polygon fill="#8DC63F" points="117.1,750.5 158.8,817.5 122.8,704.8 			"/>
			<polygon fill="#78B040" points="80,770.2 158.8,817.5 117.1,750.5 			"/>
			<polygon fill="#78B040" points="43.9,858 97.8,837.7 80,770.2 			"/>
			<polygon fill="#85BD3F" points="97.8,837.7 158.8,817.5 80,770.2 			"/>
			<polygon fill="#78B040" points="97.8,837.7 161.1,864.8 158.8,817.5 			"/>
			<polygon fill="#78B040" points="43.9,889.6 97.8,837.7 43.9,858 			"/>
			<polygon fill="#64A041" points="43.9,889.6 161.1,864.8 97.8,837.7 			"/>
			<polygon fill="#64A041" points="114.9,914.1 190.4,936.9 161.1,864.8 			"/>
			<polygon fill="#78B040" points="114.9,914.1 161.1,864.8 43.9,889.6 			"/>
			<polygon fill="#579642" points="9.8,980 34.3,980 114.9,914.1 43.9,889.6 			"/>
			<polygon fill="#71AB41" points="118.9,980 158.1,980 190.4,936.9 114.9,914.1 			"/>
			<polygon fill="#498C42" points="185.4,980 185.8,979.7 190.4,936.9 158.1,980 			"/>
			<polygon fill="#509142" points="34.3,980 118.9,980 114.9,914.1 			"/>
		</g>
		<g>
			<polygon fill="#579642" points="653.4,926.9 622.9,852.7 586.8,797.5 556.4,892.6 554.4,932.6 535.2,980 663.5,980 653.4,953.5 
							"/>
			<polygon fill="#7EB640" points="591.5,836.1 622.9,852.7 586.8,797.5 			"/>
			<polygon fill="#8DC63F" points="556.4,892.6 591.5,836.1 586.8,797.5 			"/>
			<polygon fill="#78B040" points="556.4,892.6 622.9,852.7 591.5,836.1 			"/>
			<polygon fill="#78B040" points="607.8,909.7 653.4,926.9 622.9,852.7 			"/>
			<polygon fill="#85BD3F" points="607.8,909.7 622.9,852.7 556.4,892.6 			"/>
			<polygon fill="#78B040" points="554.4,932.6 607.8,909.7 556.4,892.6 			"/>
			<polygon fill="#78B040" points="653.4,953.5 653.4,926.9 607.8,909.7 			"/>
			<polygon fill="#64A041" points="554.4,932.6 653.4,953.5 607.8,909.7 			"/>
			<polygon fill="#64A041" points="535.2,980 574.4,980 593.5,974.2 554.4,932.6 			"/>
			<polygon fill="#78B040" points="593.5,974.2 653.4,953.5 554.4,932.6 			"/>
			<polygon fill="#579642" points="593.5,974.2 600.5,980 663.4,980 653.4,953.5 			"/>
			<polygon fill="#71AB41" points="593.1,980 593.5,974.2 574.4,980 			"/>
			<polygon fill="#509142" points="593.1,980 600.5,980 593.5,974.2 			"/>
		</g>
		<g>
			<polygon fill="#579642" points="1339.6,892.6 1337.7,932.6 1318.4,980 1400,980 1400,843.3 1370,797.5 			"/>
			<polygon fill="#7EB640" points="1374.8,836.1 1400,849.4 1400,843.3 1370,797.5 			"/>
			<polygon fill="#8DC63F" points="1339.6,892.6 1374.8,836.1 1370,797.5 			"/>
			<polygon fill="#78B040" points="1339.6,892.6 1400,856.4 1400,849.4 1374.8,836.1 			"/>
			<polygon fill="#78B040" points="1400,913.1 1400,876 1391.1,909.7 			"/>
			<polygon fill="#85BD3F" points="1391.1,909.7 1400,876 1400,856.4 1339.6,892.6 			"/>
			<polygon fill="#78B040" points="1337.7,932.6 1391.1,909.7 1339.6,892.6 			"/>
			<polygon fill="#78B040" points="1400,918.3 1400,913.1 1391.1,909.7 			"/>
			<polygon fill="#64A041" points="1337.7,932.6 1400,945.8 1400,918.3 1391.1,909.7 			"/>
			<polygon fill="#64A041" points="1318.4,980 1357.6,980 1376.7,974.2 1337.7,932.6 			"/>
			<polygon fill="#78B040" points="1376.7,974.2 1400,966.2 1400,945.8 1337.7,932.6 			"/>
			<polygon fill="#579642" points="1383.7,980 1400,980 1400,966.2 1376.7,974.2 			"/>
			<polygon fill="#71AB41" points="1376.3,980 1376.7,974.2 1357.6,980 			"/>
			<polygon fill="#509142" points="1376.3,980 1383.7,980 1376.7,974.2 			"/>
		</g>
		<g>
			<polygon fill="#579642" points="392.9,913 371.4,980 430.8,980 420.7,955.5 			"/>
			<polygon fill="#7EB640" points="396.5,942.6 420.7,955.5 392.9,913 			"/>
			<polygon fill="#8DC63F" points="371.4,980 373.3,980 396.5,942.6 392.9,913 			"/>
			<polygon fill="#78B040" points="373.3,980 379.8,980 420.7,955.5 396.5,942.6 			"/>
			<polygon fill="#78B040" points="414.2,980 430.8,980 420.7,955.5 			"/>
			<polygon fill="#85BD3F" points="414.2,980 420.7,955.5 379.8,980 			"/>
		</g>
		<g>
			<polygon fill="#579642" points="1278.4,913 1256.9,980 1316.3,980 1306.2,955.5 			"/>
			<polygon fill="#7EB640" points="1282,942.6 1306.2,955.5 1278.4,913 			"/>
			<polygon fill="#8DC63F" points="1256.9,980 1258.8,980 1282,942.6 1278.4,913 			"/>
			<polygon fill="#78B040" points="1258.8,980 1265.3,980 1306.2,955.5 1282,942.6 			"/>
			<polygon fill="#78B040" points="1299.7,980 1316.3,980 1306.2,955.5 			"/>
			<polygon fill="#85BD3F" points="1299.7,980 1306.2,955.5 1265.3,980 			"/>
		</g>
		<g>
			<polygon fill="#579642" points="291.1,942 264.3,858.3 232.6,906.8 205.8,972.1 205.8,980 294,980 292.8,977.1 			"/>
			<polygon fill="#7EB640" points="260.2,892.2 264.3,858.3 232.6,906.8 			"/>
			<polygon fill="#8DC63F" points="260.2,892.2 291.1,942 264.3,858.3 			"/>
			<polygon fill="#78B040" points="232.6,906.8 291.1,942 260.2,892.2 			"/>
			<polygon fill="#78B040" points="205.8,972.1 245.8,956.9 232.6,906.8 			"/>
			<polygon fill="#85BD3F" points="245.8,956.9 291.1,942 232.6,906.8 			"/>
			<polygon fill="#78B040" points="245.8,956.9 292.8,977.1 291.1,942 			"/>
			<polygon fill="#78B040" points="205.8,980 221.9,980 245.8,956.9 205.8,972.1 			"/>
			<polygon fill="#64A041" points="221.9,980 278.9,980 292.8,977.1 245.8,956.9 			"/>
			<polygon fill="#64A041" points="290,980 294,980 292.8,977.1 			"/>
			<polygon fill="#78B040" points="290,980 292.8,977.1 278.9,980 			"/>
		</g>
		<g>
			<polygon fill="#579642" points="1187.6,942 1160.9,858.3 1129.1,906.8 1102.3,972.1 1102.3,980 1190.5,980 1189.3,977.1 			"/>
			<polygon fill="#7EB640" points="1156.7,892.2 1160.9,858.3 1129.1,906.8 			"/>
			<polygon fill="#8DC63F" points="1156.7,892.2 1187.6,942 1160.9,858.3 			"/>
			<polygon fill="#78B040" points="1129.1,906.8 1187.6,942 1156.7,892.2 			"/>
			<polygon fill="#78B040" points="1102.3,972.1 1142.4,956.9 1129.1,906.8 			"/>
			<polygon fill="#85BD3F" points="1142.4,956.9 1187.6,942 1129.1,906.8 			"/>
			<polygon fill="#78B040" points="1142.4,956.9 1189.3,977.1 1187.6,942 			"/>
			<polygon fill="#78B040" points="1102.3,980 1118.4,980 1142.4,956.9 1102.3,972.1 			"/>
			<polygon fill="#64A041" points="1118.4,980 1175.4,980 1189.3,977.1 1142.4,956.9 			"/>
			<polygon fill="#64A041" points="1186.5,980 1190.5,980 1189.3,977.1 			"/>
			<polygon fill="#78B040" points="1186.5,980 1189.3,977.1 1175.4,980 			"/>
		</g>
	</g>
	<g>
		<polygon fill="#FFFFFF" points="861.7,143.9 815.1,128 788.1,139.2 750.9,131.1 719.3,147.7 674.6,138.5 615.2,154.2 643.8,161.3 
			658.9,171.9 679.2,172.3 687,185.4 724.3,186.1 741,166.9 762,162.1 790.2,187.4 833.3,170.1 861.2,170.6 878.9,154.1 922.1,152 
			876.3,137.9 		"/>
		<polygon fill="#F3F4F4" points="658.9,171.9 674.6,138.5 643.8,161.3 		"/>
		<polygon fill="#F3F4F4" points="724.3,186.1 741,166.9 719.3,147.7 		"/>
		<polygon fill="#F3F4F4" points="687,185.4 719.3,147.7 679.2,172.3 		"/>
		<polygon fill="#F3F4F4" points="762,162.1 788.1,139.2 750.9,131.1 		"/>
		<polygon fill="#F3F4F4" points="833.3,170.1 861.7,143.9 815.1,128 		"/>
		<polygon fill="#F3F4F4" points="861.7,143.9 878.9,154.1 876.3,137.9 		"/>
		<polygon fill="#EFF9FE" points="861.2,170.6 861.7,143.9 833.3,170.1 		"/>
		<polygon fill="#EFF9FE" points="790.2,187.4 815.1,128 788.1,139.2 		"/>
		<polygon fill="#EFF9FE" points="741,166.9 750.9,131.1 719.3,147.7 		"/>
		<polygon fill="#EFF9FE" points="658.9,171.9 679.2,172.3 674.6,138.5 		"/>
	</g>
	<g>
		<polygon fill="#FFFFFF" points="1320.3,35.7 1287.4,20 1268.1,31.4 1241.8,23.5 1219.3,40.3 1187.5,31.3 1145.3,47.3 1165.6,54.3 
			1176.2,64.8 1190.7,65.1 1196.1,78.2 1222.6,78.7 1234.6,59.3 1249.5,54.5 1269.3,79.6 1300,62 1319.8,62.4 1332.4,45.8 
			1363.1,43.4 1330.7,29.6 		"/>
		<polygon fill="#F3F4F4" points="1176.2,64.8 1187.5,31.3 1165.6,54.3 		"/>
		<polygon fill="#F3F4F4" points="1222.6,78.7 1234.6,59.3 1219.3,40.3 		"/>
		<polygon fill="#F3F4F4" points="1196.1,78.2 1219.3,40.3 1190.7,65.1 		"/>
		<polygon fill="#F3F4F4" points="1249.5,54.5 1268.1,31.4 1241.8,23.5 		"/>
		<polygon fill="#F3F4F4" points="1300,62 1320.3,35.7 1287.4,20 		"/>
		<polygon fill="#F3F4F4" points="1320.3,35.7 1332.4,45.8 1330.7,29.6 		"/>
		<polygon fill="#EFF9FE" points="1319.8,62.4 1320.3,35.7 1300,62 		"/>
		<polygon fill="#EFF9FE" points="1269.3,79.6 1287.4,20 1268.1,31.4 		"/>
		<polygon fill="#EFF9FE" points="1234.6,59.3 1241.8,23.5 1219.3,40.3 		"/>
		<polygon fill="#EFF9FE" points="1176.2,64.8 1190.7,65.1 1187.5,31.3 		"/>
	</g>
	<g>
		<polygon fill="#FFFFFF" points="430.7,43 402.8,42.4 392.3,15 341,14 317.8,54.6 288.9,64.8 250.6,12.2 191.2,49.1 152.8,48.4 
			128.3,83.3 69,88.3 131.6,117.2 151.7,104.5 215.5,137.2 252.7,113.3 303.8,129.7 347.4,94.4 408.7,113.3 490.5,79.5 451.2,64.9 
					"/>
		<polygon fill="#F3F4F4" points="408.7,113.3 451.2,64.9 430.7,43 		"/>
		<polygon fill="#F3F4F4" points="317.8,54.6 347.4,94.4 341,14 		"/>
		<polygon fill="#F3F4F4" points="347.4,94.4 402.8,42.4 392.3,15 		"/>
		<polygon fill="#F3F4F4" points="252.7,113.3 303.8,129.7 288.9,64.8 		"/>
		<polygon fill="#F3F4F4" points="151.7,104.5 215.5,137.2 191.2,49.1 		"/>
		<polygon fill="#F3F4F4" points="131.6,117.2 151.7,104.5 128.3,83.3 		"/>
		<polygon fill="#EFF9FE" points="151.7,104.5 191.2,49.1 152.8,48.4 		"/>
		<polygon fill="#EFF9FE" points="215.5,137.2 252.7,113.3 250.6,12.2 		"/>
		<polygon fill="#EFF9FE" points="303.8,129.7 347.4,94.4 317.8,54.6 		"/>
		<polygon fill="#EFF9FE" points="408.7,113.3 430.7,43 402.8,42.4 		"/>
	</g>
	<g>
		<polygon fill="#FFFFFF" points="1288,251.3 1254.5,250.7 1241.7,228.8 1180,227.7 1152.5,259.7 1117.9,267.6 1071.5,225.6 
			1000.4,254.4 954.4,253.5 925.2,280.9 854,284.4 929.4,307.8 953.5,297.9 1030.3,324.3 1074.8,305.7 1136.3,319.1 1188.3,291.4 
			1262.2,306.9 1360.1,280.7 1312.9,268.9 		"/>
		<polygon fill="#F3F4F4" points="1262.2,306.9 1312.9,268.9 1288,251.3 		"/>
		<polygon fill="#F3F4F4" points="1152.5,259.7 1188.3,291.4 1180,227.7 		"/>
		<polygon fill="#F3F4F4" points="1188.3,291.4 1254.5,250.7 1241.7,228.8 		"/>
		<polygon fill="#F3F4F4" points="1074.8,305.7 1136.3,319.1 1117.9,267.6 		"/>
		<polygon fill="#F3F4F4" points="953.5,297.9 1030.3,324.3 1000.4,254.4 		"/>
		<polygon fill="#F3F4F4" points="929.4,307.8 953.5,297.9 925.2,280.9 		"/>
		<polygon fill="#EFF9FE" points="953.5,297.9 1000.4,254.4 954.4,253.5 		"/>
		<polygon fill="#EFF9FE" points="1030.3,324.3 1074.8,305.7 1071.5,225.6 		"/>
		<polygon fill="#EFF9FE" points="1136.3,319.1 1188.3,291.4 1152.5,259.7 		"/>
		<polygon fill="#EFF9FE" points="1262.2,306.9 1288,251.3 1254.5,250.7 		"/>
	</g>
</g>
</svg>
